{"glyphs":{"0":{"ha":740,"x_min":65,"x_max":675,"o":"m 675 459 q 372 -13 675 -13 q 142 108 220 -13 q 65 467 65 230 q 140 821 65 704 q 367 938 215 938 q 597 817 519 938 q 675 459 675 695 m 218 756 q 194 711 218 756 q 171 463 171 665 q 218 170 171 261 q 370 78 265 78 q 521 170 474 78 q 568 463 568 263 q 521 755 568 663 q 369 848 473 848 q 218 756 265 848 z "},"1":{"ha":740,"x_min":119,"x_max":451,"o":"m 451 924 l 451 0 l 350 0 l 350 659 q 355 814 350 746 q 324 785 341 800 q 174 663 306 770 l 119 735 l 363 924 l 451 924 z "},"2":{"ha":740,"x_min":63,"x_max":671,"o":"m 671 98 l 671 0 l 63 0 l 63 91 l 306 335 q 453 495 419 449 q 524 687 524 591 q 479 804 524 761 q 355 848 434 848 q 246 829 296 848 q 131 760 195 810 l 75 831 q 353 937 203 937 q 557 871 482 937 q 631 692 631 805 q 581 516 631 602 q 397 300 531 429 l 195 103 l 195 98 l 671 98 z "},"3":{"ha":740,"x_min":60,"x_max":664,"o":"m 635 706 q 586 562 635 619 q 445 487 537 506 l 445 482 q 664 262 664 454 q 573 58 664 129 q 322 -13 482 -13 q 60 37 161 -13 l 60 137 q 316 77 182 77 q 555 264 555 77 q 291 433 555 433 l 200 433 l 200 522 l 293 522 q 464 570 400 522 q 527 703 527 618 q 481 809 527 770 q 355 848 435 848 q 240 831 294 848 q 117 770 187 815 l 65 841 q 352 937 187 937 q 561 876 487 937 q 635 706 635 814 z "},"4":{"ha":740,"x_min":27,"x_max":714,"o":"m 714 308 l 714 212 l 577 212 l 577 0 l 477 0 l 477 212 l 27 212 l 27 304 l 466 929 l 577 929 l 577 308 l 714 308 m 477 308 l 477 615 q 483 819 477 705 l 477 819 q 421 718 446 757 l 132 308 l 477 308 z "},"5":{"ha":740,"x_min":84,"x_max":666,"o":"m 352 565 q 582 492 499 565 q 666 294 666 420 q 574 68 666 150 q 325 -13 482 -13 q 84 37 167 -13 l 84 138 q 195 94 128 110 q 324 78 262 78 q 497 131 435 78 q 558 282 558 183 q 321 475 558 475 q 161 457 263 475 l 106 492 l 141 924 l 600 924 l 600 827 l 230 827 l 207 550 q 352 565 279 565 z "},"6":{"ha":740,"x_min":74,"x_max":677,"o":"m 74 395 q 179 802 74 666 q 493 937 285 937 q 605 925 563 937 l 605 835 q 494 850 558 850 q 266 757 344 850 q 181 467 189 664 l 189 467 q 409 576 258 576 q 605 501 534 576 q 677 289 677 426 q 598 70 677 152 q 381 -13 520 -13 q 158 95 242 -13 q 74 395 74 204 m 524 133 q 548 161 524 133 q 573 290 573 190 q 526 442 573 390 q 389 493 480 493 q 243 442 306 496 q 181 319 180 388 q 239 147 180 220 q 384 77 298 74 q 524 133 475 77 z "},"7":{"ha":740,"x_min":60,"x_max":674,"o":"m 60 827 l 60 924 l 674 924 l 674 840 l 296 0 l 180 0 l 563 827 l 60 827 z "},"8":{"ha":740,"x_min":66,"x_max":673,"o":"m 170 878 q 370 937 244 937 q 569 878 496 937 q 643 716 643 819 q 466 489 643 576 q 625 377 576 437 q 673 239 673 317 q 593 55 673 124 q 369 -13 513 -13 q 145 52 225 -13 q 66 236 66 117 q 259 483 66 395 q 135 588 174 531 q 96 717 96 645 q 170 878 96 817 m 502 610 q 521 632 502 610 q 540 715 540 654 q 494 814 540 777 q 369 852 448 852 q 244 814 289 852 q 199 716 199 777 q 236 613 199 654 q 374 529 274 572 q 502 610 463 567 m 212 350 q 190 326 212 350 q 169 229 169 301 q 222 115 169 157 q 369 72 275 72 q 517 116 464 72 q 569 238 569 160 q 520 347 569 299 q 348 440 470 395 q 212 350 254 400 z "},"9":{"ha":740,"x_min":67,"x_max":672,"o":"m 220 790 q 195 761 220 790 q 171 633 171 732 q 217 484 171 535 q 355 433 263 433 q 502 483 439 430 q 565 604 566 536 q 507 777 566 705 q 360 848 448 850 q 220 790 270 848 m 251 -13 q 135 0 178 -13 l 135 91 q 249 74 185 74 q 479 168 401 74 q 563 456 556 262 l 555 456 q 464 376 522 404 q 334 348 407 348 q 139 421 212 348 q 67 633 67 494 q 148 854 67 771 q 360 937 229 937 q 587 829 501 940 q 671 529 672 718 q 251 -13 671 -13 z "},"\r":{"ha":374,"x_min":0,"x_max":0,"o":""}," ":{"ha":374,"x_min":0,"x_max":0,"o":""},"!":{"ha":405,"x_min":126,"x_max":279,"o":"m 268 924 l 236 255 l 170 255 l 138 924 l 268 924 m 258 4 q 248 -7 258 4 q 203 -18 238 -18 q 147 3 167 -18 q 126 67 126 24 q 202 153 126 153 q 259 131 239 153 q 279 68 279 109 q 258 4 279 27 z "},"\"":{"ha":575,"x_min":112,"x_max":463,"o":"m 345 924 l 463 924 l 437 591 l 371 591 l 345 924 m 112 924 l 230 924 l 204 591 l 138 591 l 112 924 z "},"#":{"ha":836,"x_min":32,"x_max":803,"o":"m 342 568 l 300 353 l 492 353 l 534 568 l 342 568 m 803 568 l 620 568 l 578 353 l 757 353 l 757 272 l 563 272 l 510 0 l 423 0 l 477 272 l 285 272 l 233 0 l 147 0 l 198 272 l 32 272 l 32 353 l 213 353 l 256 568 l 81 568 l 81 648 l 270 648 l 322 924 l 410 924 l 358 648 l 551 648 l 604 924 l 689 924 l 635 648 l 803 648 l 803 568 z "},"$":{"ha":740,"x_min":83,"x_max":654,"o":"m 234 741 q 218 727 234 741 q 202 666 202 712 q 230 591 202 619 q 329 536 258 562 l 329 780 q 234 741 267 770 m 547 275 q 519 349 547 321 q 410 405 492 376 l 410 159 q 547 275 547 178 m 654 284 q 590 142 654 198 q 410 72 526 86 l 410 -75 l 329 -75 l 329 66 q 190 77 257 66 q 83 107 123 88 l 83 206 q 204 168 136 183 q 329 153 272 153 l 329 431 q 146 527 198 473 q 95 665 95 581 q 158 802 95 749 q 329 867 222 855 l 329 982 l 410 982 l 410 869 q 635 822 525 866 l 602 739 q 410 783 508 775 l 410 508 q 558 447 510 477 q 631 378 608 417 q 654 284 654 339 z "},"%":{"ha":1065,"x_min":66,"x_max":999,"o":"m 252 937 q 393 862 344 937 q 442 646 442 787 q 394 431 442 505 q 255 357 345 357 q 115 432 164 357 q 66 648 66 508 q 252 937 66 937 m 743 924 l 836 924 l 324 0 l 230 0 l 743 924 m 252 862 q 177 810 200 862 q 153 648 153 757 q 177 486 153 539 q 252 433 200 433 q 356 648 356 433 q 252 862 356 862 m 670 494 q 693 530 670 494 q 808 567 717 567 q 949 492 899 567 q 999 276 999 418 q 951 61 999 135 q 811 -13 902 -13 q 671 62 719 -13 q 622 279 622 138 q 670 494 622 421 m 888 438 q 875 464 888 438 q 809 490 862 490 q 733 439 756 490 q 709 278 709 388 q 733 116 709 169 q 809 63 756 63 q 888 116 862 63 q 913 277 913 169 q 888 438 913 386 z "},"&":{"ha":944,"x_min":72,"x_max":942,"o":"m 475 821 q 459 836 475 821 q 387 852 442 852 q 297 821 331 852 q 262 744 262 791 q 284 658 262 697 q 362 562 306 618 q 476 649 444 609 q 508 740 508 689 q 475 821 508 791 m 360 81 q 612 179 513 81 l 336 447 q 237 376 265 403 q 180 244 180 321 q 229 124 180 167 q 360 81 278 81 m 72 239 q 115 385 72 321 q 273 513 160 449 q 199 603 219 573 q 158 737 158 672 q 220 885 158 832 q 389 938 282 938 q 554 885 496 938 q 612 739 612 833 q 569 614 612 671 q 427 498 526 556 l 685 251 q 777 458 744 317 l 883 458 q 753 184 839 277 l 942 0 l 798 0 l 680 112 q 530 17 607 46 q 357 -13 453 -13 q 146 54 221 -13 q 72 239 72 121 z "},"'":{"ha":370,"x_min":126,"x_max":244,"o":"m 126 924 l 244 924 l 218 591 l 152 591 l 126 924 z "},"(":{"ha":454,"x_min":63,"x_max":355,"o":"m 112 117 q 88 189 112 117 q 63 427 63 261 q 112 739 63 593 q 253 995 161 885 l 355 995 q 219 728 265 874 q 173 428 173 582 q 220 129 173 274 q 355 -134 268 -15 l 253 -134 q 112 117 161 -27 z "},")":{"ha":454,"x_min":98,"x_max":391,"o":"m 342 737 q 367 664 342 737 q 391 425 391 591 q 342 116 391 259 q 201 -135 294 -27 l 100 -135 q 234 129 187 -15 q 281 427 281 273 q 235 727 281 581 q 98 994 188 873 l 201 994 q 342 737 294 883 z "},"*":{"ha":714,"x_min":54,"x_max":656,"o":"m 293 983 l 415 983 l 388 734 l 640 804 l 656 689 l 415 669 l 572 463 l 463 404 l 352 633 l 251 404 l 140 463 l 293 669 l 54 689 l 72 804 l 319 734 l 293 983 z "},"+":{"ha":740,"x_min":66,"x_max":673,"o":"m 413 770 l 413 500 l 673 500 l 673 413 l 413 413 l 413 143 l 325 143 l 325 413 l 66 413 l 66 500 l 325 500 l 325 770 l 413 770 z "},",":{"ha":317,"x_min":40,"x_max":230,"o":"m 230 136 q 119 -167 197 4 l 40 -167 q 79 2 59 -92 q 106 150 98 95 l 221 150 l 230 136 z "},"-":{"ha":471,"x_min":81,"x_max":390,"o":"m 390 369 l 81 369 l 81 465 l 390 465 l 390 369 z "},".":{"ha":344,"x_min":96,"x_max":249,"o":"m 228 4 q 217 -7 228 4 q 172 -18 206 -18 q 117 3 137 -18 q 96 66 96 24 q 116 131 96 109 q 171 153 135 153 q 228 131 208 153 q 249 68 249 109 q 228 4 249 27 z "},"/":{"ha":475,"x_min":13,"x_max":462,"o":"m 357 924 l 462 924 l 117 0 l 13 0 l 357 924 z "},":":{"ha":358,"x_min":110,"x_max":263,"o":"m 242 562 q 231 551 242 562 q 185 540 220 540 q 130 561 150 540 q 110 625 110 581 q 185 711 110 711 q 263 625 263 711 q 242 562 263 585 m 242 4 q 231 -7 242 4 q 186 -18 220 -18 q 131 3 151 -18 q 110 66 110 24 q 130 131 110 109 q 185 153 149 153 q 242 131 222 153 q 263 68 263 109 q 242 4 263 27 z "},";":{"ha":358,"x_min":54,"x_max":260,"o":"m 239 562 q 229 551 239 562 q 182 540 218 540 q 126 562 145 540 q 107 625 107 584 q 182 711 107 711 q 260 625 260 711 q 239 562 260 585 m 244 136 q 133 -167 211 4 l 54 -167 q 93 2 73 -92 q 120 150 112 95 l 235 150 l 244 136 z "},"<":{"ha":740,"x_min":66,"x_max":673,"o":"m 673 249 l 673 153 l 66 420 l 66 482 l 673 784 l 673 690 l 179 456 l 673 249 z "},"=":{"ha":740,"x_min":75,"x_max":663,"o":"m 663 542 l 75 542 l 75 628 l 663 628 l 663 542 m 663 284 l 75 284 l 75 370 l 663 370 l 663 284 z "},">":{"ha":740,"x_min":66,"x_max":673,"o":"m 66 153 l 66 249 l 560 454 l 66 690 l 66 784 l 673 482 l 673 420 l 66 153 z "},"?":{"ha":647,"x_min":87,"x_max":591,"o":"m 334 255 l 253 255 l 253 289 q 276 410 253 362 q 360 511 298 458 q 469 621 447 585 q 491 709 491 658 q 449 809 491 774 q 331 843 408 843 q 235 832 282 843 q 124 789 187 820 l 87 875 q 332 937 206 937 q 525 878 458 937 q 591 711 591 818 q 543 562 591 626 q 440 462 517 531 q 355 371 376 408 q 334 275 334 335 l 334 255 m 354 4 q 344 -7 354 4 q 298 -18 334 -18 q 242 3 263 -18 q 222 67 222 24 q 298 153 222 153 q 354 131 334 153 q 374 68 374 109 q 354 4 374 27 z "},"@":{"ha":1163,"x_min":77,"x_max":1089,"o":"m 981 181 q 955 160 981 181 q 870 140 930 140 q 773 172 810 140 q 729 256 736 205 l 723 256 q 651 170 698 201 q 540 140 603 140 q 391 204 445 140 q 338 381 338 268 q 412 590 338 509 q 609 671 487 671 q 706 662 652 671 q 804 641 761 654 l 788 344 l 788 330 q 872 218 788 218 q 965 286 930 218 q 1001 462 1001 354 q 898 738 1003 633 q 624 841 793 843 q 380 783 485 843 q 219 615 275 724 q 164 365 163 506 q 266 69 164 173 q 559 -35 368 -35 q 835 20 692 -35 l 835 -65 q 559 -117 713 -117 q 203 8 331 -117 q 77 361 77 135 q 144 653 77 525 q 337 852 211 782 q 624 923 462 923 q 864 866 758 925 q 1030 702 971 808 q 1087 461 1089 595 q 1059 296 1087 370 q 981 181 1031 222 m 609 593 q 480 536 527 593 q 433 378 433 479 q 557 218 433 218 q 699 415 687 218 l 708 580 q 609 593 663 593 z "},"A":{"ha":819,"x_min":0,"x_max":819,"o":"m 261 390 l 559 390 l 451 677 q 409 810 430 736 q 369 677 396 753 l 261 390 m 819 0 l 708 0 l 593 294 l 223 294 l 109 0 l 0 0 l 365 928 l 456 928 l 819 0 z "},"B":{"ha":838,"x_min":127,"x_max":767,"o":"m 127 0 l 127 924 l 388 924 q 654 869 572 924 q 736 695 736 814 q 690 559 736 612 q 557 490 644 506 l 557 484 q 767 263 767 448 q 684 70 767 139 q 449 0 600 0 l 127 0 m 235 831 l 235 528 l 411 528 q 575 564 525 528 q 625 681 625 600 q 570 796 625 762 q 393 831 515 831 l 235 831 m 427 91 q 652 268 652 91 q 595 397 652 356 q 418 437 537 437 l 235 437 l 235 91 l 427 91 z "},"C":{"ha":817,"x_min":78,"x_max":778,"o":"m 522 841 q 282 739 370 841 q 194 459 194 638 q 279 182 194 280 q 521 83 364 83 q 742 117 619 83 l 742 23 q 505 -13 646 -13 q 190 111 301 -13 q 79 463 79 236 q 109 658 78 569 q 198 808 140 746 q 339 904 256 870 q 524 937 423 938 q 778 884 671 937 l 732 792 q 522 841 629 841 z "},"D":{"ha":944,"x_min":127,"x_max":864,"o":"m 745 805 q 805 745 745 805 q 864 463 864 685 q 740 121 864 242 q 383 0 617 0 l 127 0 l 127 924 l 410 924 q 745 805 626 924 m 365 93 q 654 187 557 93 q 751 464 751 282 q 660 739 751 647 q 390 831 569 831 l 235 831 l 235 93 l 365 93 z "},"E":{"ha":720,"x_min":127,"x_max":642,"o":"m 642 96 l 642 0 l 127 0 l 127 924 l 642 924 l 642 829 l 235 829 l 235 531 l 617 531 l 617 436 l 235 436 l 235 96 l 642 96 z "},"F":{"ha":668,"x_min":127,"x_max":642,"o":"m 235 395 l 235 0 l 127 0 l 127 924 l 642 924 l 642 829 l 235 829 l 235 490 l 617 490 l 617 395 l 235 395 z "},"G":{"ha":942,"x_min":77,"x_max":848,"o":"m 534 388 l 534 484 l 848 484 l 848 34 q 696 -1 772 11 q 522 -13 620 -13 q 195 112 312 -13 q 79 462 79 237 q 136 714 77 605 q 304 881 195 822 q 558 937 414 940 q 833 883 706 937 l 792 788 q 551 841 668 841 q 287 741 382 841 q 192 457 192 640 q 284 178 192 275 q 553 81 376 81 q 740 104 647 81 l 740 388 l 534 388 z "},"H":{"ha":955,"x_min":127,"x_max":829,"o":"m 829 924 l 829 0 l 721 0 l 721 435 l 235 435 l 235 0 l 127 0 l 127 924 l 235 924 l 235 531 l 721 531 l 721 924 l 829 924 z "},"I":{"ha":361,"x_min":127,"x_max":235,"o":"m 235 0 l 127 0 l 127 924 l 235 924 l 235 0 z "},"J":{"ha":345,"x_min":-101,"x_max":228,"o":"m 228 9 q 166 -178 228 -112 q -8 -244 105 -244 q -101 -226 -67 -244 l -101 -135 q -8 -147 -56 -147 q 87 -110 55 -147 q 120 0 120 -72 l 120 924 l 228 924 l 228 9 z "},"K":{"ha":794,"x_min":127,"x_max":794,"o":"m 235 0 l 127 0 l 127 924 l 235 924 l 235 466 l 654 924 l 780 924 l 409 522 l 794 0 l 668 0 l 331 448 l 235 362 l 235 0 z "},"L":{"ha":672,"x_min":127,"x_max":642,"o":"m 642 0 l 127 0 l 127 924 l 235 924 l 235 98 l 642 98 l 642 0 z "},"M":{"ha":1168,"x_min":127,"x_max":1042,"o":"m 226 588 l 226 0 l 127 0 l 127 924 l 289 924 l 581 161 l 586 161 l 881 924 l 1042 924 l 1042 0 l 935 0 l 935 595 q 944 818 935 702 l 938 818 l 622 0 l 536 0 l 223 819 l 218 819 q 226 588 226 722 z "},"N":{"ha":976,"x_min":127,"x_max":849,"o":"m 749 924 l 849 924 l 849 0 l 726 0 l 221 775 l 216 775 q 226 525 226 634 l 226 0 l 127 0 l 127 924 l 249 924 l 752 152 l 757 152 q 749 394 746 334 l 749 924 z "},"O":{"ha":1008,"x_min":79,"x_max":929,"o":"m 190 112 q 79 464 79 237 q 190 814 79 690 q 503 938 301 938 q 817 812 705 938 q 929 464 929 686 q 817 114 929 242 q 502 -13 704 -13 q 190 112 301 -13 m 737 746 q 698 795 737 746 q 506 843 659 843 q 272 746 352 843 q 192 462 192 649 q 272 179 192 276 q 506 81 352 81 q 737 178 659 81 q 815 462 815 275 q 737 746 815 650 z "},"P":{"ha":779,"x_min":127,"x_max":713,"o":"m 367 924 q 713 654 713 924 q 617 439 713 515 q 343 363 521 363 l 235 363 l 235 0 l 127 0 l 127 924 l 367 924 m 235 831 l 235 456 l 331 456 q 538 501 473 456 q 602 645 602 548 q 541 786 602 742 q 355 831 481 831 l 235 831 z "},"Q":{"ha":1008,"x_min":79,"x_max":929,"o":"m 929 463 q 858 168 929 286 q 656 9 786 50 l 876 -220 l 720 -220 l 540 -11 l 505 -13 q 190 112 301 -13 q 79 464 79 237 q 190 814 79 690 q 503 938 301 938 q 817 812 705 938 q 929 463 929 686 m 737 746 q 698 795 737 746 q 506 843 659 843 q 272 746 352 843 q 192 462 192 649 q 272 179 192 276 q 506 81 352 81 q 737 178 659 81 q 815 462 815 275 q 737 746 815 650 z "},"R":{"ha":800,"x_min":127,"x_max":778,"o":"m 235 830 l 235 477 l 382 477 q 548 521 495 477 q 602 657 602 566 q 548 789 602 749 q 374 830 494 830 l 235 830 m 235 384 l 235 0 l 127 0 l 127 924 l 381 924 q 631 859 550 924 q 713 663 713 794 q 527 415 713 479 l 778 0 l 651 0 l 427 384 l 235 384 z "},"S":{"ha":711,"x_min":67,"x_max":648,"o":"m 648 246 q 560 55 648 124 q 314 -13 472 -13 q 67 29 155 -13 l 67 133 q 324 81 192 81 q 485 121 430 81 q 540 236 540 161 q 521 314 540 284 q 456 371 501 344 q 319 430 410 397 q 134 539 190 475 q 79 706 79 602 q 159 874 79 811 q 375 937 240 937 q 625 887 509 937 l 591 793 q 369 841 477 841 q 236 804 284 841 q 187 703 187 767 q 205 624 187 654 q 265 567 222 595 q 394 511 309 541 q 593 400 540 459 q 648 246 648 341 z "},"T":{"ha":716,"x_min":11,"x_max":704,"o":"m 411 829 l 411 0 l 304 0 l 304 829 l 11 829 l 11 924 l 704 924 l 704 829 l 411 829 z "},"U":{"ha":942,"x_min":117,"x_max":824,"o":"m 717 924 l 824 924 l 824 326 q 729 78 824 168 q 467 -13 633 -13 q 209 78 301 -13 q 117 329 117 169 l 117 924 l 225 924 l 225 321 q 288 143 225 204 q 471 81 352 81 q 654 144 591 81 q 717 322 717 206 l 717 924 z "},"V":{"ha":770,"x_min":0,"x_max":770,"o":"m 444 330 l 654 924 l 770 924 l 437 0 l 331 0 l 0 924 l 114 924 l 326 326 q 384 126 364 221 q 444 330 408 230 z "},"W":{"ha":1198,"x_min":17,"x_max":1180,"o":"m 1180 924 l 933 0 l 827 0 l 641 619 q 611 723 631 651 q 594 798 595 784 q 550 615 580 713 l 369 0 l 263 0 l 17 924 l 131 924 l 277 353 q 321 136 308 232 q 371 362 338 252 l 537 924 l 651 924 l 824 357 q 876 136 857 254 q 921 355 887 223 l 1067 924 l 1180 924 z "},"X":{"ha":747,"x_min":5,"x_max":742,"o":"m 433 487 l 742 0 l 620 0 l 371 407 l 119 0 l 5 0 l 312 483 l 26 924 l 145 924 l 374 558 l 605 924 l 720 924 l 433 487 z "},"Y":{"ha":725,"x_min":0,"x_max":725,"o":"m 416 0 l 308 0 l 308 353 l 0 924 l 117 924 l 362 462 l 609 924 l 725 924 l 416 358 l 416 0 z "},"Z":{"ha":739,"x_min":52,"x_max":687,"o":"m 687 98 l 687 0 l 52 0 l 52 84 l 542 827 l 67 827 l 67 924 l 673 924 l 673 840 l 183 98 l 687 98 z "},"[":{"ha":426,"x_min":105,"x_max":394,"o":"m 394 -45 l 394 -135 l 105 -135 l 105 994 l 394 994 l 394 905 l 211 905 l 211 -45 l 394 -45 z "},"\\":{"ha":475,"x_min":15,"x_max":463,"o":"m 15 924 l 117 924 l 463 0 l 358 0 l 15 924 z "},"]":{"ha":426,"x_min":32,"x_max":321,"o":"m 32 -135 l 32 -45 l 215 -45 l 215 905 l 32 905 l 32 994 l 321 994 l 321 -135 l 32 -135 z "},"^":{"ha":701,"x_min":31,"x_max":669,"o":"m 127 348 l 31 348 l 305 931 l 368 931 l 669 348 l 573 348 l 338 819 l 127 348 z "},"_":{"ha":580,"x_min":-3,"x_max":583,"o":"m 583 -117 l 583 -199 l -3 -199 l -3 -117 l 583 -117 z "},"`":{"ha":753,"x_min":230,"x_max":517,"o":"m 517 879 l 478 871 q 449 880 476 873 q 415 892 423 887 q 290 999 344 949 q 230 1070 253 1036 l 293 1079 q 338 1064 294 1076 q 391 1044 383 1053 q 448 965 397 1034 q 517 879 503 894 z "},"a":{"ha":720,"x_min":60,"x_max":615,"o":"m 169 190 q 204 104 169 134 q 300 74 238 74 q 454 127 399 74 q 510 278 510 181 l 510 341 l 405 336 q 225 297 280 331 q 169 190 169 263 m 615 0 l 537 0 l 516 98 l 511 98 q 408 11 459 34 q 279 -13 357 -13 q 118 41 176 -13 q 60 192 60 94 q 395 411 60 401 l 513 415 l 513 458 q 477 579 513 541 q 361 617 442 617 q 169 565 279 617 l 137 645 q 371 704 246 704 q 556 649 496 704 q 615 473 615 593 l 615 0 z "},"b":{"ha":793,"x_min":111,"x_max":721,"o":"m 216 600 q 430 704 289 704 q 646 611 571 704 q 721 346 721 517 q 645 81 721 176 q 429 -13 569 -13 q 216 89 290 -13 l 209 89 l 186 0 l 111 0 l 111 983 l 216 983 l 216 744 q 211 600 216 660 l 216 600 m 565 145 q 588 180 565 145 q 612 349 612 215 q 565 550 612 484 q 414 616 517 616 q 263 555 310 616 q 216 347 216 494 q 265 138 216 201 q 421 75 313 75 q 565 145 517 75 z "},"c":{"ha":616,"x_min":72,"x_max":573,"o":"m 388 -13 q 154 80 237 -13 q 72 344 72 173 q 156 610 72 515 q 395 705 240 705 q 495 694 445 705 q 573 669 545 684 l 541 580 q 393 612 463 612 q 181 343 181 612 q 233 147 181 215 q 385 79 285 79 q 563 117 471 79 l 563 23 q 388 -13 494 -13 z "},"d":{"ha":793,"x_min":72,"x_max":682,"o":"m 230 546 q 206 510 230 546 q 181 343 181 475 q 230 143 181 211 q 373 75 279 75 q 529 134 480 75 q 577 322 577 192 l 577 344 q 528 555 577 492 q 371 617 479 617 q 230 546 279 617 m 577 93 q 364 -13 504 -13 q 148 80 224 -13 q 72 345 72 174 q 148 610 72 515 q 363 705 224 705 q 576 603 501 705 l 584 603 l 579 653 l 577 701 l 577 983 l 682 983 l 682 0 l 597 0 l 583 93 l 577 93 z "},"e":{"ha":726,"x_min":72,"x_max":659,"o":"m 404 -13 q 161 81 250 -13 q 72 341 72 174 q 154 607 72 508 q 373 705 238 705 q 583 619 507 705 q 659 394 659 534 l 659 327 l 181 327 q 243 142 185 206 q 411 79 301 79 q 628 126 521 79 l 628 32 q 524 -2 574 8 q 404 -13 473 -13 m 546 413 q 502 565 546 512 q 375 617 458 617 q 243 563 293 617 q 184 413 192 509 l 546 413 z "},"f":{"ha":439,"x_min":18,"x_max":494,"o":"m 423 692 l 423 611 l 247 611 l 247 0 l 142 0 l 142 611 l 18 611 l 18 659 l 142 697 l 142 735 q 365 990 142 990 q 494 968 421 990 l 467 884 q 363 904 408 904 q 275 864 303 904 q 247 737 247 824 l 247 692 l 423 692 z "},"g":{"ha":709,"x_min":25,"x_max":678,"o":"m 336 628 q 222 588 261 628 q 183 474 183 548 q 223 361 183 399 q 338 324 264 324 q 492 473 492 324 q 336 628 492 628 m 678 692 l 678 626 l 550 611 q 595 473 595 554 q 526 310 595 371 q 335 249 456 249 q 277 255 306 249 q 210 166 210 219 q 233 123 210 136 q 313 110 257 110 l 436 110 q 609 63 548 110 q 669 -75 669 15 q 577 -251 669 -190 q 308 -311 484 -311 q 98 -261 172 -311 q 25 -117 25 -210 q 65 -8 25 -53 q 179 54 106 38 q 134 92 151 67 q 117 153 117 117 q 136 216 117 188 q 200 272 156 244 q 112 347 147 294 q 79 468 79 400 q 147 644 79 582 q 341 705 216 705 q 439 692 395 705 l 678 692 m 277 15 q 165 -19 205 15 q 126 -113 126 -53 q 309 -231 126 -231 q 503 -192 438 -231 q 568 -84 568 -154 q 533 -7 568 -29 q 402 15 499 15 l 277 15 z "},"h":{"ha":794,"x_min":111,"x_max":690,"o":"m 690 0 l 585 0 l 585 448 q 546 575 585 534 q 426 616 508 616 q 266 556 316 616 q 216 362 216 496 l 216 0 l 111 0 l 111 983 l 216 983 l 216 685 q 211 597 216 629 l 218 597 q 306 676 249 647 q 436 704 364 704 q 627 643 565 704 q 690 451 690 582 l 690 0 z "},"i":{"ha":327,"x_min":103,"x_max":226,"o":"m 209 828 q 200 819 209 828 q 164 810 191 810 q 119 828 136 810 q 103 881 103 846 q 119 932 103 915 q 164 950 136 950 q 209 932 191 950 q 226 880 226 914 q 209 828 226 846 m 216 692 l 216 0 l 111 0 l 111 692 l 216 692 z "},"j":{"ha":327,"x_min":-70,"x_max":226,"o":"m 209 828 q 200 819 209 828 q 164 810 191 810 q 119 828 136 810 q 103 881 103 846 q 119 932 103 915 q 164 950 136 950 q 209 932 191 950 q 226 880 226 914 q 209 828 226 846 m 216 -106 q 27 -311 216 -311 q -70 -295 -32 -311 l -70 -210 q 20 -223 -27 -223 q 111 -114 111 -223 l 111 692 l 216 692 l 216 -106 z "},"k":{"ha":679,"x_min":111,"x_max":666,"o":"m 215 0 l 111 0 l 111 983 l 215 983 l 215 462 q 210 355 215 423 l 215 355 q 298 456 244 395 l 521 692 l 646 692 l 365 397 l 666 0 l 539 0 l 294 327 l 215 259 l 215 0 z "},"l":{"ha":327,"x_min":111,"x_max":216,"o":"m 216 983 l 216 0 l 111 0 l 111 983 l 216 983 z "},"m":{"ha":1204,"x_min":111,"x_max":1099,"o":"m 1099 0 l 994 0 l 994 451 q 849 616 994 616 q 704 560 751 616 q 657 387 657 503 l 657 0 l 553 0 l 553 451 q 517 575 553 534 q 407 616 481 616 q 262 556 307 616 q 216 363 216 497 l 216 0 l 111 0 l 111 692 l 197 692 l 213 598 l 218 598 q 303 677 249 648 q 423 705 357 705 q 635 588 586 705 l 641 588 q 731 674 673 642 q 864 705 790 705 q 1041 644 984 705 q 1099 451 1099 583 l 1099 0 z "},"n":{"ha":794,"x_min":111,"x_max":690,"o":"m 690 0 l 585 0 l 585 448 q 546 575 585 534 q 426 616 508 616 q 267 557 317 616 q 216 363 216 499 l 216 0 l 111 0 l 111 692 l 197 692 l 213 598 l 218 598 q 309 677 251 648 q 439 705 367 705 q 628 644 565 705 q 690 451 690 583 l 690 0 z "},"o":{"ha":782,"x_min":70,"x_max":709,"o":"m 158 611 q 200 658 158 611 q 390 705 243 705 q 624 608 538 705 q 709 345 709 512 q 624 82 709 178 q 388 -13 538 -13 q 159 85 247 -14 q 72 347 70 184 q 158 611 72 517 m 389 616 q 181 347 181 616 q 234 145 181 214 q 390 75 287 75 q 547 144 494 75 q 600 347 600 213 q 547 548 600 480 q 389 616 494 616 z "},"p":{"ha":793,"x_min":111,"x_max":721,"o":"m 561 147 q 587 184 561 147 q 612 348 612 220 q 562 546 612 477 q 418 616 511 616 q 265 558 313 616 q 216 370 218 499 l 216 347 q 265 138 216 201 q 421 75 313 75 q 561 147 510 75 m 646 611 q 684 564 646 611 q 721 346 721 517 q 645 81 721 176 q 429 -13 569 -13 q 216 89 290 -13 l 209 89 q 216 -26 216 25 l 216 -311 l 111 -311 l 111 692 l 197 692 l 211 598 l 216 598 q 431 705 292 705 q 646 611 571 705 z "},"q":{"ha":793,"x_min":72,"x_max":682,"o":"m 357 -13 q 147 81 223 -13 q 72 345 72 176 q 148 610 72 515 q 363 705 224 705 q 578 598 502 705 l 584 598 l 599 692 l 682 692 l 682 -311 l 577 -311 l 577 -15 q 584 93 577 51 l 576 93 q 357 -13 503 -13 m 181 343 q 378 75 181 75 q 525 131 477 75 q 577 321 574 187 l 577 344 q 528 553 577 489 q 371 617 478 617 q 230 546 279 617 q 181 343 181 475 z "},"r":{"ha":528,"x_min":111,"x_max":510,"o":"m 427 705 q 510 698 475 705 l 496 600 q 420 609 454 609 q 276 541 336 609 q 216 371 216 473 l 216 0 l 111 0 l 111 692 l 198 692 l 210 565 l 215 565 q 308 669 253 633 q 427 705 362 705 z "},"s":{"ha":617,"x_min":67,"x_max":558,"o":"m 558 189 q 486 40 558 92 q 280 -13 414 -13 q 69 31 146 -13 l 69 128 q 286 74 177 74 q 457 180 457 74 q 421 250 457 220 q 288 316 385 279 q 147 380 190 352 q 67 521 67 435 q 136 656 67 607 q 321 705 204 705 q 543 660 438 705 l 506 574 q 323 617 403 617 q 205 594 244 617 q 167 529 167 572 q 181 483 167 503 q 226 445 195 463 q 348 394 258 427 q 515 303 472 348 q 558 189 558 258 z "},"t":{"ha":457,"x_min":20,"x_max":430,"o":"m 224 204 q 253 107 224 141 q 333 74 282 74 q 430 86 384 74 l 430 6 q 379 -7 414 -1 q 319 -13 344 -13 q 119 199 119 -13 l 119 611 l 20 611 l 20 661 l 119 705 l 163 853 l 224 853 l 224 692 l 425 692 l 425 611 l 224 611 l 224 204 z "},"u":{"ha":794,"x_min":104,"x_max":683,"o":"m 104 692 l 210 692 l 210 243 q 249 117 210 158 q 369 75 288 75 q 528 135 478 75 q 578 329 578 195 l 578 692 l 683 692 l 683 0 l 597 0 l 581 93 l 576 93 q 487 15 543 42 q 356 -13 430 -13 q 166 48 228 -13 q 104 239 104 109 l 104 692 z "},"v":{"ha":648,"x_min":0,"x_max":648,"o":"m 385 0 l 263 0 l 0 692 l 112 692 l 262 282 q 321 95 312 136 l 326 95 q 365 220 334 129 q 536 692 397 312 l 648 692 l 385 0 z "},"w":{"ha":1007,"x_min":15,"x_max":993,"o":"m 801 0 l 677 0 l 550 407 q 505 576 536 451 l 500 576 q 456 405 475 465 l 325 0 l 204 0 l 15 692 l 124 692 q 233 271 204 383 q 267 111 261 159 l 272 111 q 297 213 281 156 q 321 295 312 271 l 448 692 l 562 692 l 685 295 q 734 112 721 187 l 739 112 q 758 205 742 139 q 884 692 773 270 l 993 692 l 801 0 z "},"x":{"ha":678,"x_min":25,"x_max":652,"o":"m 25 0 l 278 355 l 37 692 l 157 692 l 339 427 l 521 692 l 640 692 l 399 355 l 652 0 l 534 0 l 339 281 l 143 0 l 25 0 z "},"y":{"ha":652,"x_min":1,"x_max":651,"o":"m 105 -311 q 10 -301 58 -311 l 10 -216 q 88 -224 46 -224 q 242 -103 196 -224 l 281 -4 l 1 692 l 114 692 l 265 298 q 327 103 317 157 l 332 103 q 365 210 341 138 q 539 692 390 282 l 651 692 l 353 -96 q 251 -262 310 -212 q 105 -311 192 -311 z "},"z":{"ha":605,"x_min":52,"x_max":554,"o":"m 554 81 l 554 0 l 52 0 l 52 72 l 430 611 l 75 611 l 75 692 l 545 692 l 545 611 l 172 81 l 554 81 z "},"{":{"ha":533,"x_min":63,"x_max":470,"o":"m 324 265 l 324 78 q 361 -15 324 15 q 470 -46 397 -45 l 470 -135 q 284 -80 350 -133 q 218 72 218 -26 l 218 263 q 180 356 218 327 q 63 385 141 385 l 63 474 q 182 504 145 475 q 218 594 218 533 l 218 787 q 287 940 218 886 q 470 994 355 994 l 470 906 q 324 781 324 902 l 324 594 q 184 433 324 459 l 184 426 q 324 265 324 402 z "},"|":{"ha":713,"x_min":312,"x_max":401,"o":"m 312 -313 l 312 983 l 401 983 l 401 -313 l 312 -313 z "},"}":{"ha":532,"x_min":63,"x_max":469,"o":"m 206 594 l 206 781 q 63 906 206 902 l 63 994 q 246 939 180 994 q 312 787 312 884 l 312 594 q 350 504 312 533 q 469 474 387 475 l 469 385 q 351 356 390 385 q 312 263 312 327 l 312 72 q 248 -79 312 -25 q 63 -135 183 -133 l 63 -46 q 171 -15 135 -45 q 206 78 206 15 l 206 265 q 241 375 206 337 q 348 426 275 414 l 348 433 q 206 594 206 459 z "},"~":{"ha":740,"x_min":66,"x_max":673,"o":"m 270 443 q 256 447 270 443 q 211 451 242 451 q 140 430 180 451 q 66 374 100 409 l 66 470 q 220 539 129 539 q 299 530 264 539 q 404 492 334 521 q 516 462 474 462 q 599 482 559 462 q 673 539 640 503 l 673 444 q 523 374 608 374 q 348 415 439 374 q 270 443 298 436 z "}," ":{"ha":374,"x_min":0,"x_max":0,"o":""},"©":{"ha":1077,"x_min":63,"x_max":1014,"o":"m 781 53 q 725 20 781 53 q 539 -13 670 -13 q 297 52 407 -13 q 125 227 187 117 q 63 463 63 337 q 126 699 63 588 q 300 873 190 810 q 537 937 410 937 q 775 874 664 937 q 950 700 885 811 q 1014 463 1014 590 q 952 228 1014 337 q 781 53 892 119 m 743 815 q 539 871 650 871 q 335 816 428 871 q 185 667 241 761 q 129 463 129 574 q 184 257 129 352 q 334 107 240 162 q 540 53 430 53 q 743 108 649 53 q 892 256 837 163 q 947 461 947 350 q 892 666 947 572 q 743 815 837 760 m 565 669 q 443 614 486 669 q 400 458 400 560 q 440 305 400 356 q 563 253 480 253 q 697 282 619 253 l 697 204 q 558 173 625 173 q 370 249 436 173 q 304 459 304 324 q 374 672 304 594 q 565 749 444 749 q 720 711 645 749 l 683 637 q 565 669 616 669 z "},"×":{"ha":740,"x_min":84,"x_max":654,"o":"m 370 519 l 594 743 l 654 680 l 433 457 l 654 235 l 593 172 l 369 394 l 149 172 l 85 235 l 306 457 l 84 679 l 147 743 l 370 519 z "},"÷":{"ha":740,"x_min":66,"x_max":673,"o":"m 420 621 q 410 611 420 621 q 368 600 401 600 q 317 621 336 600 q 298 678 298 641 q 316 734 298 715 q 368 753 335 753 q 420 733 402 753 q 439 677 439 713 q 420 621 439 641 m 673 413 l 66 413 l 66 500 l 673 500 l 673 413 m 420 180 q 410 170 420 180 q 368 159 401 159 q 317 179 336 159 q 298 236 298 199 q 316 293 298 274 q 368 312 335 312 q 420 292 402 312 q 439 236 439 272 q 420 180 439 200 z "},"ʼ":{"ha":480,"x_min":146,"x_max":357,"o":"m 351 1054 l 357 1039 l 238 721 l 146 721 l 214 1054 l 351 1054 z "},"ऀ":{"ha":0,"x_min":-486,"x_max":42,"o":"m -486 1155 q -231 1274 -388 1274 q 42 1162 -74 1274 l 11 1078 q -225 1184 -95 1184 q -449 1079 -355 1184 l -486 1155 m -179 1073 q -172 1064 -179 1073 q -164 1026 -164 1055 q -179 981 -164 997 q -223 964 -194 964 q -266 981 -251 964 q -281 1026 -281 997 q -266 1073 -281 1055 q -222 1090 -251 1090 q -179 1073 -194 1090 z "},"ँ":{"ha":0,"x_min":-489,"x_max":39,"o":"m -268 1193 q -276 1202 -268 1193 q -283 1240 -283 1211 q -268 1285 -283 1269 q -225 1302 -253 1302 q -181 1285 -196 1302 q -166 1240 -166 1269 q -182 1193 -166 1211 q -225 1176 -197 1176 q -268 1193 -253 1176 m 39 1111 q -217 992 -60 992 q -489 1104 -374 992 l -459 1188 q -222 1082 -352 1082 q 2 1187 -93 1082 l 39 1111 z "},"ं":{"ha":0,"x_min":-288,"x_max":-154,"o":"m -270 1067 q -279 1076 -270 1067 q -288 1118 -288 1086 q -270 1168 -288 1149 q -221 1187 -253 1187 q -171 1168 -189 1187 q -154 1118 -154 1149 q -171 1067 -154 1086 q -221 1047 -189 1047 q -270 1067 -253 1047 z "},"ः":{"ha":358,"x_min":110,"x_max":263,"o":"m 242 562 q 231 551 242 562 q 185 540 220 540 q 130 561 150 540 q 110 625 110 581 q 185 711 110 711 q 263 625 263 711 q 242 562 263 585 m 242 4 q 231 -7 242 4 q 186 -18 220 -18 q 131 3 151 -18 q 110 66 110 24 q 130 131 110 109 q 185 153 149 153 q 242 131 222 153 q 263 68 263 109 q 242 4 263 27 z "},"ऄ":{"ha":1107,"x_min":67,"x_max":1128,"o":"m 834 0 l 834 378 q 694 353 774 353 q 604 360 655 353 q 607 314 607 336 q 543 150 607 216 q 368 84 478 84 q 215 113 293 84 q 67 197 137 142 l 96 285 q 355 177 226 177 q 470 218 428 177 q 513 321 513 259 q 400 496 513 432 q 223 467 323 467 l 215 467 l 196 553 l 201 553 q 401 599 329 553 q 472 706 472 645 q 433 788 472 757 q 325 819 395 819 q 127 758 229 819 l 95 845 q 321 907 204 907 q 500 850 437 907 q 562 700 562 793 q 482 542 562 607 q 570 449 539 501 q 676 440 622 440 q 834 481 765 440 l 834 818 l 679 818 l 679 898 l 826 898 l 826 968 q 807 1034 826 1011 q 751 1057 787 1057 q 668 1041 727 1057 q 560 1024 609 1024 q 378 1121 463 1024 l 419 1190 q 496 1130 464 1147 q 560 1114 527 1114 q 662 1132 593 1114 q 774 1151 732 1151 q 886 1105 843 1151 q 930 982 930 1059 l 930 898 l 1128 898 l 1128 818 l 938 818 l 938 0 l 834 0 z "},"अ":{"ha":1107,"x_min":67,"x_max":1128,"o":"m 834 0 l 834 378 q 694 353 774 353 q 604 360 655 353 q 607 314 607 336 q 543 150 607 216 q 368 84 478 84 q 215 113 293 84 q 67 197 137 142 l 96 285 q 355 177 226 177 q 470 218 428 177 q 513 321 513 259 q 400 496 513 432 q 223 467 323 467 l 215 467 l 196 553 l 201 553 q 401 599 329 553 q 472 706 472 645 q 433 788 472 757 q 325 819 395 819 q 127 758 229 819 l 95 845 q 321 907 204 907 q 500 850 437 907 q 562 700 562 793 q 482 542 562 607 q 570 449 539 501 q 676 440 622 440 q 834 481 765 440 l 834 818 l 679 818 l 679 898 l 1128 898 l 1128 818 l 938 818 l 938 0 l 834 0 z "},"आ":{"ha":1510,"x_min":67,"x_max":1531,"o":"m 834 0 l 834 378 q 694 353 774 353 q 604 360 655 353 q 607 314 607 336 q 543 150 607 216 q 368 84 478 84 q 215 113 293 84 q 67 197 137 142 l 96 285 q 355 177 226 177 q 470 218 428 177 q 513 321 513 259 q 400 496 513 432 q 223 467 323 467 l 215 467 l 196 553 l 201 553 q 401 599 329 553 q 472 706 472 645 q 433 788 472 757 q 325 819 395 819 q 127 758 229 819 l 95 845 q 321 907 204 907 q 500 850 437 907 q 562 700 562 793 q 482 542 562 607 q 570 449 539 501 q 676 440 622 440 q 834 481 765 440 l 834 818 l 679 818 l 679 898 l 1531 898 l 1531 818 l 1343 818 l 1343 0 l 1239 0 l 1239 818 l 938 818 l 938 0 l 834 0 z "},"इ":{"ha":710,"x_min":-21,"x_max":731,"o":"m 95 134 q 119 188 95 166 q 178 211 143 211 q 248 191 213 211 q 326 126 282 172 q 484 171 428 133 q 540 261 540 210 q 508 328 540 303 q 408 353 475 353 q 253 298 341 353 l 247 298 q 78 510 78 378 q 127 624 78 579 q 279 668 177 668 l 464 668 l 464 818 l -21 818 l -21 898 l 731 898 l 731 818 l 568 818 l 568 585 l 278 585 q 200 560 227 585 q 173 498 173 536 q 243 397 173 433 q 414 441 333 441 q 575 391 518 441 q 632 261 632 341 q 567 123 632 182 q 392 46 503 63 l 530 -103 l 461 -155 l 284 38 q 141 67 187 40 q 95 134 95 95 z "},"ई":{"ha":710,"x_min":-21,"x_max":731,"o":"m 95 134 q 119 188 95 166 q 178 211 143 211 q 248 191 213 211 q 326 126 282 172 q 484 171 428 133 q 540 261 540 210 q 508 328 540 303 q 408 353 475 353 q 253 298 341 353 l 247 298 q 78 510 78 378 q 127 624 78 579 q 279 668 177 668 l 464 668 l 464 818 l -21 818 l -21 898 l 443 898 q 384 1084 384 996 q 434 1207 384 1158 q 576 1256 484 1256 q 687 1242 639 1256 l 680 1166 q 593 1176 633 1176 q 508 1144 539 1176 q 477 1062 477 1112 q 541 898 477 989 l 731 898 l 731 818 l 568 818 l 568 585 l 278 585 q 200 560 227 585 q 173 498 173 536 q 243 397 173 433 q 414 441 333 441 q 575 391 518 441 q 632 261 632 341 q 567 123 632 182 q 392 46 503 63 l 530 -103 l 461 -155 l 284 38 q 141 67 187 40 q 95 134 95 95 z "},"उ":{"ha":749,"x_min":-21,"x_max":770,"o":"m 383 22 q 211 49 290 22 q 46 134 132 76 l 77 223 q 379 114 221 114 q 511 159 461 114 q 560 276 560 205 q 520 385 560 334 q 409 469 480 437 q 228 444 329 444 l 207 444 l 187 531 l 208 532 q 428 579 358 536 q 498 691 498 622 q 421 818 498 770 l -21 818 l -21 898 l 770 898 l 770 818 l 552 818 q 593 683 593 765 q 503 515 593 581 q 654 268 654 419 q 580 93 654 164 q 383 22 505 22 z "},"ऊ":{"ha":1077,"x_min":-21,"x_max":1098,"o":"m 654 268 q 580 93 654 164 q 383 22 505 22 q 211 49 290 22 q 46 134 132 76 l 77 223 q 379 114 221 114 q 511 159 461 114 q 560 276 560 205 q 520 385 560 334 q 409 469 480 437 q 228 444 329 444 l 207 444 l 187 531 l 208 532 q 428 579 358 536 q 498 691 498 622 q 421 818 498 770 l -21 818 l -21 898 l 1098 898 l 1098 818 l 552 818 q 593 683 593 765 q 503 515 593 581 q 563 469 536 495 q 770 537 666 537 q 935 477 873 537 q 998 315 998 417 q 906 63 998 188 l 816 100 q 906 326 906 225 q 872 415 906 381 q 777 449 838 449 q 624 393 699 449 q 654 268 654 334 z "},"ऋ":{"ha":1096,"x_min":-21,"x_max":1117,"o":"m 796 545 q 879 601 796 601 q 960 583 924 600 q 996 533 996 565 q 952 459 996 500 q 1038 238 1038 328 q 840 31 1038 70 l 792 110 q 908 164 875 131 q 942 256 942 197 q 879 407 942 314 q 692 360 790 360 q 622 364 658 360 l 622 0 l 514 0 l 514 295 l 173 117 l 125 204 l 504 398 l 420 455 q 304 519 352 501 q 207 536 257 536 q 82 503 157 536 l 53 596 q 202 634 136 634 q 451 544 317 634 l 514 501 l 514 818 l -21 818 l -21 898 l 1117 898 l 1117 818 l 622 818 l 622 457 q 692 452 660 452 q 820 484 764 452 q 796 545 796 519 z "},"ऌ":{"ha":1063,"x_min":-21,"x_max":1084,"o":"m 970 -65 q 825 -93 902 -93 q 694 -47 749 -93 q 640 65 640 -2 q 691 179 640 133 q 826 227 741 225 q 885 390 885 312 q 851 491 885 453 q 756 529 817 529 q 621 457 680 529 q 537 244 562 385 l 447 278 q 506 459 466 383 q 331 533 422 533 q 219 487 263 533 q 175 371 175 442 q 217 232 175 301 q 364 68 260 162 l 289 18 q 129 207 182 117 q 77 396 77 297 q 141 560 77 494 q 311 626 206 626 q 555 532 442 626 q 713 621 621 609 l 713 818 l -21 818 l -21 898 l 1084 898 l 1084 818 l 821 818 l 821 614 q 938 532 896 593 q 980 386 980 470 q 892 161 980 279 l 868 161 q 764 132 799 161 q 730 66 730 104 q 757 5 730 28 q 837 -18 784 -18 q 956 11 889 -18 l 970 -65 z "},"ऍ":{"ha":815,"x_min":-21,"x_max":836,"o":"m 666 1131 q 410 1013 567 1013 q 138 1124 253 1013 l 169 1208 q 405 1102 275 1102 q 629 1207 534 1102 l 666 1131 m 546 -84 q 576 11 576 -33 q 509 100 576 55 l 265 263 q 160 373 189 314 q 131 531 131 431 l 131 818 l -21 818 l -21 898 l 836 898 l 836 818 l 665 818 l 665 561 q 649 442 665 492 q 595 341 633 392 l 510 387 q 549 472 538 430 q 561 580 561 514 l 561 818 l 235 818 l 235 514 q 256 406 235 443 q 336 328 277 368 l 584 160 q 674 18 674 98 q 638 -112 674 -42 l 546 -84 z "},"ऎ":{"ha":815,"x_min":-21,"x_max":836,"o":"m 546 -84 q 576 11 576 -33 q 509 100 576 55 l 265 263 q 160 373 189 314 q 131 531 131 431 l 131 818 l -21 818 l -21 898 l 561 898 l 561 968 q 541 1034 561 1011 q 485 1057 522 1057 q 403 1041 462 1057 q 294 1024 344 1024 q 113 1121 197 1024 l 154 1190 q 230 1130 199 1147 q 295 1114 262 1114 q 397 1132 328 1114 q 509 1151 466 1151 q 621 1105 577 1151 q 665 982 665 1059 l 665 898 l 836 898 l 836 818 l 665 818 l 665 561 q 649 442 665 492 q 595 341 633 392 l 510 387 q 549 472 538 430 q 561 580 561 514 l 561 818 l 235 818 l 235 514 q 256 406 235 443 q 336 328 277 368 l 584 160 q 674 18 674 98 q 638 -112 674 -42 l 546 -84 z "},"ए":{"ha":815,"x_min":-21,"x_max":836,"o":"m 546 -84 q 576 11 576 -33 q 509 100 576 55 l 265 263 q 160 373 189 314 q 131 531 131 431 l 131 818 l -21 818 l -21 898 l 836 898 l 836 818 l 665 818 l 665 561 q 649 442 665 492 q 595 341 633 392 l 510 387 q 549 472 538 430 q 561 580 561 514 l 561 818 l 235 818 l 235 514 q 256 406 235 443 q 336 328 277 368 l 584 160 q 674 18 674 98 q 638 -112 674 -42 l 546 -84 z "},"ऐ":{"ha":815,"x_min":-21,"x_max":836,"o":"m 546 -84 q 576 11 576 -33 q 509 100 576 55 l 265 263 q 160 373 189 314 q 131 531 131 431 l 131 818 l -21 818 l -21 898 l 524 898 l 213 1196 l 289 1259 l 653 898 l 836 898 l 836 818 l 665 818 l 665 561 q 649 442 665 492 q 595 341 633 392 l 510 387 q 549 472 538 430 q 561 580 561 514 l 561 818 l 235 818 l 235 514 q 256 406 235 443 q 336 328 277 368 l 584 160 q 674 18 674 98 q 638 -112 674 -42 l 546 -84 z "},"ऑ":{"ha":1510,"x_min":67,"x_max":1538,"o":"m 1538 1112 q 1283 994 1439 994 q 1010 1105 1126 994 l 1041 1189 q 1277 1083 1147 1083 q 1501 1188 1406 1083 l 1538 1112 m 834 0 l 834 378 q 694 353 774 353 q 604 360 655 353 q 607 314 607 336 q 543 150 607 216 q 368 84 478 84 q 215 113 293 84 q 67 197 137 142 l 96 285 q 355 177 226 177 q 470 218 428 177 q 513 321 513 259 q 400 496 513 432 q 223 467 323 467 l 215 467 l 196 553 l 201 553 q 401 599 329 553 q 472 706 472 645 q 433 788 472 757 q 325 819 395 819 q 127 758 229 819 l 95 845 q 321 907 204 907 q 500 850 437 907 q 562 700 562 793 q 482 542 562 607 q 570 449 539 501 q 676 440 622 440 q 834 481 765 440 l 834 818 l 679 818 l 679 898 l 1531 898 l 1531 818 l 1343 818 l 1343 0 l 1239 0 l 1239 818 l 938 818 l 938 0 l 834 0 z "},"ऒ":{"ha":1510,"x_min":67,"x_max":1531,"o":"m 834 0 l 834 378 q 694 353 774 353 q 604 360 655 353 q 607 314 607 336 q 543 150 607 216 q 368 84 478 84 q 215 113 293 84 q 67 197 137 142 l 96 285 q 355 177 226 177 q 470 218 428 177 q 513 321 513 259 q 400 496 513 432 q 223 467 323 467 l 215 467 l 196 553 l 201 553 q 401 599 329 553 q 472 706 472 645 q 433 788 472 757 q 325 819 395 819 q 127 758 229 819 l 95 845 q 321 907 204 907 q 500 850 437 907 q 562 700 562 793 q 482 542 562 607 q 570 449 539 501 q 676 440 622 440 q 834 481 765 440 l 834 818 l 679 818 l 679 898 l 1232 898 l 1232 968 q 1212 1034 1232 1011 q 1156 1057 1192 1057 q 1074 1041 1133 1057 q 965 1024 1015 1024 q 784 1121 868 1024 l 824 1190 q 901 1130 869 1147 q 965 1114 932 1114 q 1068 1132 998 1114 q 1180 1151 1137 1151 q 1292 1105 1248 1151 q 1336 982 1336 1059 l 1336 898 l 1531 898 l 1531 818 l 1343 818 l 1343 0 l 1239 0 l 1239 818 l 938 818 l 938 0 l 834 0 z "},"ओ":{"ha":1510,"x_min":67,"x_max":1531,"o":"m 834 0 l 834 378 q 694 353 774 353 q 604 360 655 353 q 607 314 607 336 q 543 150 607 216 q 368 84 478 84 q 215 113 293 84 q 67 197 137 142 l 96 285 q 355 177 226 177 q 470 218 428 177 q 513 321 513 259 q 400 496 513 432 q 223 467 323 467 l 215 467 l 196 553 l 201 553 q 401 599 329 553 q 472 706 472 645 q 433 788 472 757 q 325 819 395 819 q 127 758 229 819 l 95 845 q 321 907 204 907 q 500 850 437 907 q 562 700 562 793 q 482 542 562 607 q 570 449 539 501 q 676 440 622 440 q 834 481 765 440 l 834 818 l 679 818 l 679 898 l 1199 898 l 889 1196 l 964 1259 l 1329 898 l 1531 898 l 1531 818 l 1343 818 l 1343 0 l 1239 0 l 1239 818 l 938 818 l 938 0 l 834 0 z "},"औ":{"ha":1510,"x_min":67,"x_max":1531,"o":"m 834 0 l 834 378 q 694 353 774 353 q 604 360 655 353 q 607 314 607 336 q 543 150 607 216 q 368 84 478 84 q 215 113 293 84 q 67 197 137 142 l 96 285 q 355 177 226 177 q 470 218 428 177 q 513 321 513 259 q 400 496 513 432 q 223 467 323 467 l 215 467 l 196 553 l 201 553 q 401 599 329 553 q 472 706 472 645 q 433 788 472 757 q 325 819 395 819 q 127 758 229 819 l 95 845 q 321 907 204 907 q 500 850 437 907 q 562 700 562 793 q 482 542 562 607 q 570 449 539 501 q 676 440 622 440 q 834 481 765 440 l 834 818 l 679 818 l 679 898 l 1052 898 l 717 1128 l 782 1204 l 1206 898 l 1224 898 l 1069 1259 l 1166 1291 l 1328 898 l 1531 898 l 1531 818 l 1343 818 l 1343 0 l 1239 0 l 1239 818 l 938 818 l 938 0 l 834 0 z "},"क":{"ha":1107,"x_min":-21,"x_max":1128,"o":"m 312 268 q 509 360 424 268 l 509 505 q 333 550 419 550 q 207 514 246 550 q 168 415 168 477 q 208 310 168 352 q 312 268 248 268 m 613 0 l 509 0 l 509 245 q 424 199 473 216 q 324 183 376 183 q 145 254 215 183 q 76 429 76 325 q 135 579 76 520 q 305 638 195 638 q 509 594 416 638 l 509 818 l -21 818 l -21 898 l 1128 898 l 1128 818 l 613 818 l 613 544 q 788 589 692 589 q 949 529 884 589 q 1013 373 1013 470 q 920 127 1013 242 l 836 160 q 922 374 922 273 q 887 466 922 433 q 789 500 852 500 q 613 427 693 500 l 613 0 z "},"ख":{"ha":1213,"x_min":-21,"x_max":1234,"o":"m 692 125 q 940 173 831 125 l 940 320 q 785 282 876 282 q 627 342 694 282 q 560 496 560 403 q 617 626 560 576 q 767 676 673 676 q 940 645 862 676 l 940 818 l 426 818 l 426 678 q 418 588 426 628 q 390 507 410 548 q 230 375 348 426 q 316 273 265 324 q 484 166 383 206 q 692 125 586 125 m 782 364 q 940 421 873 364 l 940 560 q 793 595 867 595 q 684 563 719 595 q 649 481 649 532 q 686 398 649 431 q 782 364 723 364 m 940 0 l 940 74 q 701 36 833 36 q 448 83 569 36 q 243 216 328 131 q 147 334 195 263 q 72 456 98 405 q 46 527 46 507 q 59 559 46 546 q 90 572 72 572 q 123 562 109 572 q 152 529 136 553 l 185 470 q 292 553 263 503 q 322 688 322 602 l 322 818 l -21 818 l -21 898 l 1234 898 l 1234 818 l 1044 818 l 1044 0 l 940 0 z "},"ग":{"ha":892,"x_min":-21,"x_max":914,"o":"m 620 0 l 620 818 l 315 818 l 315 327 q 271 279 315 279 q 161 342 226 279 q 95 444 95 405 q 142 483 95 483 l 211 483 l 211 818 l -21 818 l -21 898 l 914 898 l 914 818 l 724 818 l 724 0 l 620 0 z "},"घ":{"ha":944,"x_min":-21,"x_max":965,"o":"m 671 0 l 671 209 q 466 140 584 140 q 276 207 348 140 q 204 373 204 274 q 260 516 204 458 q 123 611 169 550 q 77 747 77 671 q 87 818 77 786 l -21 818 l -21 898 l 965 898 l 965 818 l 775 818 l 775 0 l 671 0 m 451 230 q 671 325 580 230 l 671 818 l 196 818 q 178 733 178 782 q 224 639 178 683 q 360 577 270 595 q 478 594 414 594 l 501 594 l 513 509 l 505 509 q 351 466 401 509 q 301 363 301 423 q 342 266 301 303 q 451 230 383 230 z "},"ङ":{"ha":906,"x_min":-21,"x_max":927,"o":"m 755 447 q 746 457 755 447 q 738 499 738 466 q 755 552 738 532 q 807 571 772 571 q 860 552 843 571 q 877 500 877 532 q 859 447 877 467 q 806 428 841 428 q 755 447 772 428 m 438 24 q 87 121 263 24 l 114 210 q 428 112 274 112 q 571 150 520 112 q 621 246 621 188 q 582 321 621 292 q 475 350 543 350 q 378 335 427 350 q 294 296 330 319 l 288 296 q 159 392 202 336 q 116 513 116 447 q 166 624 116 579 q 311 668 217 668 l 534 668 l 534 818 l -21 818 l -21 898 l 927 898 l 927 818 l 638 818 l 638 585 l 317 585 q 239 561 265 585 q 212 499 212 537 q 286 396 212 433 q 471 440 376 440 q 651 385 585 440 q 716 239 716 330 q 645 86 716 148 q 438 24 573 24 z "},"च":{"ha":973,"x_min":-21,"x_max":994,"o":"m 701 0 l 701 209 q 498 145 619 145 q 301 213 377 145 q 225 378 225 281 q 288 538 225 476 l 53 538 l 53 626 l 546 626 l 546 538 l 492 538 q 365 487 409 532 q 320 377 320 441 q 367 274 320 314 q 482 235 413 235 q 701 330 617 235 l 701 818 l -21 818 l -21 898 l 994 898 l 994 818 l 805 818 l 805 0 l 701 0 z "},"छ":{"ha":1069,"x_min":-21,"x_max":1090,"o":"m 677 47 q 638 34 677 47 q 516 21 600 21 q 363 44 431 21 q 254 107 296 67 q 168 302 168 187 q 187 392 168 348 q 244 470 206 437 q 126 564 164 508 q 88 690 88 621 q 138 818 88 759 l -21 818 l -21 898 l 1090 898 l 1090 818 l 901 818 l 901 661 q 968 579 944 632 q 992 461 992 526 q 971 333 992 395 q 908 216 949 271 q 809 116 866 160 q 677 47 753 72 m 508 112 q 666 143 593 112 q 793 227 739 174 q 653 356 701 284 q 605 506 605 428 q 656 638 605 584 q 791 693 707 693 l 797 693 l 797 818 l 277 818 q 187 673 187 766 q 331 522 187 574 q 463 543 390 543 l 467 543 l 494 458 l 489 458 q 324 411 377 458 q 271 289 271 364 q 335 163 271 213 q 508 112 400 112 m 702 487 q 849 295 702 381 q 901 452 901 376 q 872 565 901 528 q 799 601 844 601 q 728 568 753 601 q 702 487 702 536 z "},"ज":{"ha":1122,"x_min":-21,"x_max":1143,"o":"m 849 0 l 849 536 l 538 536 q 627 433 595 494 q 659 306 659 372 q 598 152 659 214 q 430 90 538 90 q 228 163 323 90 q 48 389 133 235 l 105 461 q 266 250 189 315 q 423 185 343 185 q 527 219 490 185 q 565 320 565 253 q 505 451 565 387 q 345 545 444 516 l 345 626 l 849 626 l 849 818 l -21 818 l -21 898 l 1143 898 l 1143 818 l 953 818 l 953 0 l 849 0 z "},"झ":{"ha":1128,"x_min":-21,"x_max":1149,"o":"m 602 360 q 725 349 656 349 q 855 374 793 349 l 855 818 l 568 818 l 568 585 l 278 585 q 200 560 227 585 q 173 498 173 536 q 243 397 173 433 q 414 441 333 441 q 602 360 547 441 m 95 134 q 119 188 95 166 q 178 211 143 211 q 248 191 213 211 q 326 126 282 172 q 484 171 428 133 q 540 261 540 210 q 508 328 540 303 q 408 353 475 353 q 253 298 341 353 l 247 298 q 78 510 78 378 q 127 624 78 579 q 279 668 177 668 l 464 668 l 464 818 l -21 818 l -21 898 l 1149 898 l 1149 818 l 958 818 l 958 0 l 855 0 l 855 277 q 737 262 795 262 q 632 270 680 262 l 632 261 q 567 123 632 182 q 392 46 503 63 l 530 -103 l 461 -155 l 284 38 q 141 67 187 40 q 95 134 95 95 z "},"ञ":{"ha":1171,"x_min":-21,"x_max":1192,"o":"m 899 0 l 899 369 q 765 350 826 350 q 642 360 704 350 q 568 204 633 262 q 406 145 503 145 q 223 188 310 145 q 36 330 137 231 l 79 411 q 242 278 169 317 q 387 239 315 239 q 504 283 459 239 q 549 398 549 327 q 501 514 549 468 q 376 560 453 560 q 224 499 300 560 l 180 578 q 275 628 221 608 q 381 649 329 649 q 548 595 478 649 q 638 449 619 541 q 738 440 692 440 q 899 469 824 440 l 899 818 l -21 818 l -21 898 l 1192 898 l 1192 818 l 1003 818 l 1003 0 l 899 0 z "},"ट":{"ha":798,"x_min":-21,"x_max":819,"o":"m 449 54 q 189 141 285 54 q 93 362 93 228 q 173 552 93 479 q 400 626 252 626 l 526 626 l 526 818 l -21 818 l -21 898 l 819 898 l 819 818 l 630 818 l 630 542 l 435 542 q 252 489 310 542 q 195 347 195 436 q 262 202 195 258 q 442 145 329 145 q 556 155 505 145 q 668 188 607 164 l 692 98 q 449 54 575 54 z "},"ठ":{"ha":874,"x_min":-21,"x_max":895,"o":"m 452 46 q 189 136 289 46 q 88 364 88 225 q 172 553 88 480 q 396 626 256 626 l 600 626 l 600 818 l -21 818 l -21 898 l 895 898 l 895 818 l 704 818 l 704 576 q 774 465 747 527 q 801 341 800 403 q 778 226 802 279 q 712 133 755 173 q 601 69 668 93 q 452 46 534 46 m 440 138 q 638 197 570 138 q 705 346 705 256 q 681 451 705 400 q 612 542 657 502 l 440 542 q 249 490 310 542 q 188 349 188 439 q 257 198 188 259 q 440 138 327 138 z "},"ड":{"ha":812,"x_min":-21,"x_max":833,"o":"m 438 24 q 87 121 263 24 l 114 210 q 428 112 274 112 q 571 150 520 112 q 621 246 621 188 q 582 321 621 292 q 475 350 543 350 q 378 335 427 350 q 294 296 330 319 l 288 296 q 159 392 202 336 q 116 513 116 447 q 166 624 116 579 q 311 668 217 668 l 534 668 l 534 818 l -21 818 l -21 898 l 833 898 l 833 818 l 638 818 l 638 585 l 317 585 q 239 561 265 585 q 212 499 212 537 q 286 396 212 433 q 471 440 376 440 q 651 385 585 440 q 716 239 716 330 q 645 86 716 148 q 438 24 573 24 z "},"ढ":{"ha":812,"x_min":-21,"x_max":833,"o":"m 490 31 q 200 128 316 31 q 85 362 85 225 q 164 552 85 478 q 392 626 242 626 l 529 626 l 529 818 l -21 818 l -21 898 l 833 898 l 833 818 l 633 818 l 633 542 l 430 542 q 242 489 302 542 q 183 348 183 435 q 236 214 183 275 q 376 126 289 152 q 360 213 360 166 q 410 332 360 284 q 553 381 461 381 q 700 332 645 381 q 755 207 755 284 q 686 81 755 131 q 490 31 617 31 m 482 111 q 622 142 574 111 q 670 213 670 173 q 641 277 670 254 q 560 299 613 299 q 477 269 508 299 q 447 195 447 239 q 468 111 447 151 l 482 111 z "},"ण":{"ha":1076,"x_min":-21,"x_max":1097,"o":"m 803 0 l 803 818 l 577 818 l 577 525 q 519 332 577 404 q 345 261 461 261 q 167 332 230 261 q 103 522 103 402 l 103 818 l -21 818 l -21 898 l 1097 898 l 1097 818 l 907 818 l 907 0 l 803 0 m 241 385 q 258 367 241 385 q 339 349 275 349 q 438 391 403 349 q 473 513 473 434 l 473 818 l 207 818 l 207 492 q 241 385 207 421 z "},"त":{"ha":834,"x_min":-21,"x_max":855,"o":"m 364 626 l 562 626 l 562 818 l -21 818 l -21 898 l 855 898 l 855 818 l 666 818 l 666 0 l 562 0 l 562 536 l 388 536 q 242 489 292 536 q 192 364 192 442 q 336 27 192 219 l 247 -8 q 132 196 174 90 q 91 388 91 302 q 161 560 92 494 q 364 626 231 626 z "},"थ":{"ha":928,"x_min":58,"x_max":949,"o":"m 656 0 l 656 261 q 475 208 581 208 q 268 269 368 208 q 105 442 167 330 l 109 457 q 310 558 248 504 q 124 626 190 568 q 58 768 58 685 q 106 881 58 834 q 232 928 153 928 q 400 860 334 928 q 466 690 466 791 q 406 520 466 588 q 242 409 345 451 q 341 332 284 360 q 456 304 397 304 q 656 382 576 304 l 656 818 l 579 818 l 579 898 l 949 898 l 949 818 l 760 818 l 760 0 l 656 0 m 179 816 q 167 803 179 816 q 155 749 155 791 q 207 672 155 706 q 366 633 258 638 q 376 692 376 660 q 338 798 376 756 q 245 840 300 840 q 179 816 202 840 z "},"द":{"ha":767,"x_min":-21,"x_max":789,"o":"m 439 90 q 181 170 280 90 q 82 384 82 250 q 158 558 82 487 q 376 628 234 628 l 495 628 l 495 818 l -21 818 l -21 898 l 789 898 l 789 818 l 599 818 l 599 545 l 406 545 q 234 495 289 545 q 178 366 178 446 q 247 232 178 286 q 420 178 315 178 q 461 181 444 178 q 444 245 442 218 q 466 286 446 272 q 525 301 487 301 q 633 277 586 301 q 680 219 680 252 q 659 168 680 195 q 598 122 638 142 l 706 -100 l 623 -135 l 511 95 q 439 90 476 90 z "},"ध":{"ha":948,"x_min":17,"x_max":969,"o":"m 675 0 l 675 209 q 470 140 588 140 q 281 207 352 140 q 209 373 209 274 q 253 496 209 443 q 87 584 149 522 q 17 753 17 654 q 70 890 17 836 q 209 944 123 944 q 342 898 296 944 q 389 785 389 853 q 335 667 389 718 q 196 605 282 616 q 341 558 253 572 q 482 582 402 582 l 505 582 l 517 497 l 509 497 q 357 459 409 497 q 305 362 305 420 q 347 266 305 303 q 455 230 388 230 q 675 325 584 230 l 675 818 l 570 818 l 570 898 l 969 898 l 969 818 l 779 818 l 779 0 l 675 0 m 139 826 q 123 809 139 826 q 106 748 106 791 q 124 674 106 705 q 257 708 212 677 q 302 788 302 739 q 281 841 302 821 q 216 862 261 862 q 139 826 172 862 z "},"न":{"ha":852,"x_min":-21,"x_max":873,"o":"m 580 0 l 580 466 l 246 466 l 246 316 q 235 280 246 293 q 205 268 223 268 q 164 290 186 268 q 115 380 141 312 q 88 497 88 447 q 152 555 88 555 l 580 555 l 580 818 l -21 818 l -21 898 l 873 898 l 873 818 l 684 818 l 684 0 l 580 0 z "},"ऩ":{"ha":852,"x_min":-21,"x_max":873,"o":"m 580 0 l 580 466 l 246 466 l 246 316 q 235 280 246 293 q 205 268 223 268 q 164 290 186 268 q 115 380 141 312 q 88 497 88 447 q 152 555 88 555 l 580 555 l 580 818 l -21 818 l -21 898 l 873 898 l 873 818 l 684 818 l 684 0 l 580 0 m 138 -52 q 129 -42 138 -52 q 120 -1 120 -32 q 138 50 120 30 q 187 69 155 69 q 237 50 219 69 q 254 -1 254 30 q 237 -52 254 -32 q 187 -72 219 -72 q 138 -52 155 -72 z "},"प":{"ha":808,"x_min":-21,"x_max":829,"o":"m 536 0 l 536 307 q 378 274 457 274 q 181 341 253 274 q 108 539 108 409 l 108 818 l -21 818 l -21 898 l 829 898 l 829 818 l 640 818 l 640 0 l 536 0 m 362 365 q 536 416 457 365 l 536 818 l 212 818 l 212 518 q 362 365 212 365 z "},"फ":{"ha":1127,"x_min":-21,"x_max":1148,"o":"m 364 389 q 528 435 449 389 l 528 818 l 214 818 l 214 543 q 364 389 214 389 m 632 0 l 528 0 l 528 327 q 381 298 454 298 q 182 366 254 298 q 110 566 110 434 l 110 818 l -21 818 l -21 898 l 1148 898 l 1148 818 l 632 818 l 632 501 q 813 550 711 550 q 978 486 916 550 q 1041 324 1041 421 q 1018 194 1041 263 q 958 74 996 125 l 867 106 q 947 327 947 218 q 912 422 947 385 q 815 459 876 459 q 632 380 718 459 l 632 0 z "},"ब":{"ha":824,"x_min":-21,"x_max":845,"o":"m 551 0 l 551 227 q 370 176 477 176 q 161 253 242 176 q 80 444 80 329 q 149 604 80 541 q 334 668 218 668 q 551 633 450 668 l 551 818 l -21 818 l -21 898 l 845 898 l 845 818 l 655 818 l 655 0 l 551 0 m 360 581 q 303 576 333 581 l 526 319 q 551 341 540 329 l 551 541 q 360 581 444 581 m 359 264 q 446 277 406 264 l 221 539 q 173 428 173 499 q 224 311 173 357 q 359 264 275 264 z "},"भ":{"ha":986,"x_min":14,"x_max":1007,"o":"m 112 763 q 308 645 112 653 l 308 718 q 278 811 308 775 q 203 847 248 847 q 135 822 158 847 q 112 763 112 796 m 713 0 l 713 371 l 411 371 l 411 296 q 374 251 411 251 q 328 265 355 251 q 273 308 301 280 q 227 368 246 336 q 208 421 208 400 q 255 461 208 461 l 308 461 l 308 554 q 88 620 162 562 q 14 774 14 678 q 61 890 14 840 q 195 939 108 939 q 354 874 296 939 q 411 706 411 810 l 411 461 l 713 461 l 713 818 l 609 818 l 609 898 l 1007 898 l 1007 818 l 817 818 l 817 0 l 713 0 z "},"म":{"ha":871,"x_min":-21,"x_max":892,"o":"m 599 818 l 275 818 l 275 461 l 599 461 l 599 818 m 599 0 l 599 371 l 275 371 l 275 296 q 237 251 275 251 q 191 265 218 251 q 137 308 164 280 q 90 368 109 336 q 71 421 71 400 q 118 461 71 461 l 171 461 l 171 818 l -21 818 l -21 898 l 892 898 l 892 818 l 703 818 l 703 0 l 599 0 z "},"य":{"ha":885,"x_min":-21,"x_max":906,"o":"m 612 0 l 612 261 q 431 208 538 208 q 224 269 324 208 q 62 442 124 330 l 65 457 q 225 553 181 497 q 268 700 268 609 l 268 818 l -21 818 l -21 898 l 906 898 l 906 818 l 716 818 l 716 0 l 612 0 m 413 304 q 612 382 532 304 l 612 818 l 372 818 l 372 692 q 199 410 372 489 q 297 332 240 360 q 413 304 354 304 z "},"र":{"ha":607,"x_min":-21,"x_max":628,"o":"m 61 491 q 35 547 35 525 q 48 581 35 569 q 84 594 60 594 q 129 566 108 594 l 219 440 q 364 656 364 491 l 364 818 l -21 818 l -21 898 l 628 898 l 628 818 l 468 818 l 468 640 q 427 472 468 546 q 275 354 382 390 l 501 44 l 424 -9 l 61 491 z "},"ऱ":{"ha":607,"x_min":-21,"x_max":628,"o":"m 61 491 q 35 547 35 525 q 48 581 35 569 q 84 594 60 594 q 129 566 108 594 l 219 440 q 364 656 364 491 l 364 818 l -21 818 l -21 898 l 628 898 l 628 818 l 468 818 l 468 640 q 427 472 468 546 q 275 354 382 390 l 501 44 l 424 -9 l 61 491 m 48 -41 q 40 -32 48 -41 q 31 9 31 -22 q 48 60 31 41 q 98 79 66 79 q 147 60 130 79 q 165 9 165 41 q 147 -41 165 -22 q 98 -61 130 -61 q 48 -41 66 -61 z "},"ल":{"ha":1067,"x_min":-21,"x_max":1088,"o":"m 795 0 l 795 496 l 479 228 l 414 293 l 553 416 q 448 500 507 469 q 331 531 388 531 q 216 487 259 531 q 172 371 172 442 q 214 231 172 301 q 363 69 256 161 l 284 14 q 74 388 74 197 q 143 559 74 492 q 317 626 211 626 q 623 476 492 626 l 795 627 l 795 818 l -21 818 l -21 898 l 1088 898 l 1088 818 l 899 818 l 899 0 l 795 0 z "},"ळ":{"ha":1158,"x_min":-21,"x_max":1179,"o":"m 821 181 q 952 231 904 181 q 1001 368 1001 282 q 960 502 1001 455 q 852 550 920 550 q 729 502 785 550 q 637 356 673 454 q 605 281 621 315 q 821 181 714 181 m 225 224 q 247 201 225 224 q 336 178 269 178 q 451 227 403 178 q 543 385 500 277 q 574 455 556 419 q 469 524 518 503 q 362 545 420 545 q 229 493 278 545 q 180 356 180 442 q 225 224 180 270 m 829 88 q 692 117 756 88 q 560 202 627 145 q 343 86 477 86 q 157 161 230 86 q 84 360 84 237 q 157 562 84 484 q 349 640 230 640 q 495 613 429 640 q 624 531 561 586 q 844 642 712 642 q 885 640 868 642 l 885 818 l -21 818 l -21 898 l 1179 898 l 1179 818 l 989 818 l 989 601 q 1095 359 1095 529 q 1020 161 1095 235 q 829 88 946 88 z "},"ऴ":{"ha":1158,"x_min":-21,"x_max":1179,"o":"m 821 181 q 952 231 904 181 q 1001 368 1001 282 q 960 502 1001 455 q 852 550 920 550 q 729 502 785 550 q 637 356 673 454 q 605 281 621 315 q 821 181 714 181 m 225 224 q 247 201 225 224 q 336 178 269 178 q 451 227 403 178 q 543 385 500 277 q 574 455 556 419 q 469 524 518 503 q 362 545 420 545 q 229 493 278 545 q 180 356 180 442 q 225 224 180 270 m 829 88 q 692 117 756 88 q 560 202 627 145 q 343 86 477 86 q 157 161 230 86 q 84 360 84 237 q 157 562 84 484 q 349 640 230 640 q 495 613 429 640 q 624 531 561 586 q 844 642 712 642 q 885 640 868 642 l 885 818 l -21 818 l -21 898 l 1179 898 l 1179 818 l 989 818 l 989 601 q 1095 359 1095 529 q 1020 161 1095 235 q 829 88 946 88 m 105 -102 q 96 -92 105 -102 q 87 -51 87 -82 q 105 0 87 -20 q 154 19 122 19 q 204 0 186 19 q 221 -51 221 -20 q 204 -102 221 -82 q 154 -121 186 -121 q 105 -102 122 -121 z "},"व":{"ha":824,"x_min":-21,"x_max":845,"o":"m 551 0 l 551 229 q 370 178 479 178 q 161 254 242 178 q 81 444 81 330 q 150 604 81 541 q 337 666 220 666 q 551 633 454 666 l 551 818 l -21 818 l -21 898 l 845 898 l 845 818 l 655 818 l 655 0 l 551 0 m 358 266 q 551 346 467 266 l 551 539 q 359 579 446 579 q 224 536 272 579 q 176 427 176 494 q 226 312 176 359 q 358 266 276 266 z "},"श":{"ha":1041,"x_min":81,"x_max":1062,"o":"m 769 0 l 769 818 l 635 818 l 635 898 l 1062 898 l 1062 818 l 873 818 l 873 0 l 769 0 m 499 642 q 440 782 499 725 q 303 840 380 840 q 228 815 254 840 q 204 753 202 789 q 272 657 205 700 q 364 623 306 636 q 497 609 423 609 q 499 642 499 625 m 152 244 q 99 265 117 244 q 81 320 81 286 q 116 409 81 367 q 186 450 150 450 q 237 434 214 450 q 296 370 261 417 q 402 434 356 393 q 474 527 449 474 q 204 599 301 530 q 107 767 107 667 q 157 881 107 833 q 293 930 206 930 q 503 846 416 930 q 589 633 589 763 q 522 431 589 524 q 348 288 454 338 l 549 59 l 482 -1 l 255 256 q 152 244 203 244 z "},"ष":{"ha":808,"x_min":-21,"x_max":829,"o":"m 536 0 l 536 305 q 378 274 457 274 q 181 341 253 274 q 108 539 108 409 l 108 818 l -21 818 l -21 898 l 829 898 l 829 818 l 640 818 l 640 0 l 536 0 m 536 818 l 253 818 l 536 476 l 536 818 m 250 403 q 270 384 250 403 q 363 365 290 365 q 493 391 435 365 l 210 736 l 210 518 q 250 403 210 440 z "},"स":{"ha":1018,"x_min":-21,"x_max":1039,"o":"m 409 487 q 582 456 499 456 q 746 480 666 456 l 746 818 l 443 818 l 443 641 q 409 487 443 551 m 61 491 q 35 547 35 525 q 48 581 35 569 q 85 594 61 594 q 129 566 108 594 l 212 450 q 339 657 339 503 l 339 818 l -21 818 l -21 898 l 1039 898 l 1039 818 l 850 818 l 850 0 l 746 0 l 746 383 q 590 364 675 364 q 352 413 474 364 q 269 362 318 383 l 501 44 l 424 -9 l 61 491 z "},"ह":{"ha":821,"x_min":-21,"x_max":842,"o":"m 152 175 q 202 319 152 255 q 77 502 77 390 q 126 613 77 567 q 263 658 174 658 l 549 658 l 549 818 l -21 818 l -21 898 l 842 898 l 842 818 l 653 818 l 653 574 l 283 574 q 202 550 229 574 q 175 491 175 526 q 200 427 175 456 q 272 380 225 399 q 441 423 345 423 q 637 363 565 423 q 708 220 708 303 q 667 72 708 137 l 580 95 q 614 211 614 147 q 570 296 614 261 q 444 331 526 331 q 307 280 362 331 q 253 161 253 228 q 651 -89 253 -44 l 624 -173 q 271 -59 390 -148 q 152 175 152 31 z "},"ऺ":{"ha":0,"x_min":-275,"x_max":-171,"o":"m -275 1047 l -171 1047 l -171 844 l -275 844 l -275 1047 z "},"ऻ":{"ha":417,"x_min":-21,"x_max":438,"o":"m 145 0 l 145 818 l -21 818 l -21 898 l 145 898 l 145 1045 l 249 1045 l 249 898 l 438 898 l 438 818 l 249 818 l 249 0 l 145 0 z "},"़":{"ha":0,"x_min":-633,"x_max":-499,"o":"m -615 -258 q -624 -248 -615 -258 q -633 -207 -633 -238 q -615 -156 -633 -176 q -566 -137 -598 -137 q -516 -156 -534 -137 q -499 -207 -499 -176 q -516 -258 -499 -238 q -566 -277 -534 -277 q -615 -258 -598 -277 z "},"ऽ":{"ha":758,"x_min":80,"x_max":657,"o":"m 657 286 q 585 124 657 183 q 407 65 513 65 q 244 90 322 65 q 80 176 166 116 l 109 265 q 384 156 258 156 q 514 192 466 156 q 562 287 562 229 q 513 391 562 345 q 360 495 465 437 q 210 611 256 553 q 164 734 164 668 q 212 847 164 800 q 378 898 265 898 l 632 898 l 632 818 l 403 818 q 264 724 264 818 q 301 645 264 682 q 445 548 337 607 q 605 428 553 488 q 657 286 657 367 z "},"ा":{"ha":417,"x_min":-21,"x_max":438,"o":"m 145 0 l 145 818 l -21 818 l -21 898 l 438 898 l 438 818 l 249 818 l 249 0 l 145 0 z "},"ि":{"ha":417,"x_min":-21,"x_max":1023,"o":"m 145 0 l 145 818 l -21 818 l -21 898 l 145 898 l 145 956 q 196 1118 145 1050 q 267 1182 224 1155 q 377 1225 310 1209 q 529 1241 444 1241 q 1023 1136 781 1241 l 1003 1051 q 543 1147 771 1147 q 312 1087 382 1147 q 249 947 249 1032 l 249 898 l 438 898 l 438 818 l 249 818 l 249 0 l 145 0 z "},"ी":{"ha":417,"x_min":-335,"x_max":438,"o":"m 145 0 l 145 818 l -21 818 l -21 898 l 133 898 q 12 1080 81 1018 q -134 1142 -56 1142 q -211 1115 -184 1142 q -237 1041 -237 1087 q -173 883 -237 965 l -283 883 q -335 1062 -335 973 q -285 1187 -335 1135 q -147 1238 -235 1238 q 78 1150 -23 1238 q 243 898 178 1062 l 438 898 l 438 818 l 249 818 l 249 0 l 145 0 z "},"ु":{"ha":0,"x_min":-639,"x_max":-5,"o":"m -222 15 q -66 -42 -127 15 q -5 -188 -5 -99 q -68 -331 -5 -277 q -231 -385 -132 -385 q -436 -345 -330 -385 q -639 -235 -542 -305 l -604 -152 q -417 -259 -507 -223 q -254 -296 -327 -296 q -140 -264 -182 -296 q -99 -183 -99 -232 q -132 -104 -99 -133 q -221 -74 -166 -74 q -379 -144 -301 -74 l -427 -68 q -222 15 -341 15 z "},"ू":{"ha":0,"x_min":-442,"x_max":197,"o":"m -70 -332 q -225 -371 -134 -371 q -379 -318 -315 -371 q -442 -179 -442 -265 q -348 -17 -442 -71 q -232 12 -300 12 q -14 -57 -124 12 q 197 -260 95 -126 l 141 -325 q -49 -140 46 -201 q -221 -79 -143 -79 q -316 -111 -282 -79 q -350 -189 -350 -143 q -317 -261 -350 -234 q -225 -287 -284 -287 q -99 -253 -166 -287 l -70 -332 z "},"ृ":{"ha":0,"x_min":-461,"x_max":-87,"o":"m -87 -305 q -252 -336 -160 -336 q -403 -287 -344 -336 q -461 -161 -461 -238 q -406 -35 -461 -84 q -246 13 -350 13 q -169 11 -205 13 l -169 -62 l -230 -62 q -337 -92 -301 -62 q -373 -165 -373 -121 q -340 -234 -373 -209 q -246 -259 -308 -259 q -104 -225 -185 -259 l -87 -305 z "},"ॄ":{"ha":0,"x_min":-441,"x_max":-62,"o":"m -62 -452 q -197 -480 -123 -480 q -317 -440 -271 -480 q -364 -350 -364 -400 q -341 -269 -364 -301 q -414 -212 -388 -250 q -441 -131 -441 -175 q -392 -27 -441 -67 q -242 14 -343 14 q -169 11 -204 14 l -169 -59 l -231 -59 q -321 -82 -291 -59 q -351 -138 -351 -105 q -325 -190 -351 -170 q -246 -209 -298 -209 q -129 -187 -194 -209 l -114 -262 q -237 -286 -175 -284 q -281 -346 -281 -305 q -257 -392 -281 -374 q -187 -410 -234 -410 q -77 -381 -140 -410 l -62 -452 z "},"ॅ":{"ha":0,"x_min":-489,"x_max":39,"o":"m 39 1111 q -217 992 -60 992 q -489 1104 -374 992 l -459 1188 q -222 1082 -352 1082 q 2 1187 -93 1082 l 39 1111 z "},"ॆ":{"ha":0,"x_min":-723,"x_max":-171,"o":"m -171 873 l -275 873 l -275 968 q -294 1034 -275 1011 q -350 1057 -314 1057 q -433 1041 -374 1057 q -541 1024 -492 1024 q -723 1121 -638 1024 l -682 1190 q -605 1130 -637 1147 q -541 1114 -574 1114 q -439 1132 -508 1114 q -327 1151 -369 1151 q -215 1105 -258 1151 q -171 982 -171 1059 l -171 873 z "},"े":{"ha":0,"x_min":-620,"x_max":-156,"o":"m -156 873 l -284 873 l -620 1196 l -545 1259 l -156 873 z "},"ै":{"ha":0,"x_min":-786,"x_max":-165,"o":"m -415 873 l -786 1128 l -720 1204 l -271 879 l -433 1259 l -337 1291 l -165 873 l -415 873 z "},"ॉ":{"ha":417,"x_min":-69,"x_max":459,"o":"m 459 1112 q 204 993 361 993 q -69 1105 47 993 l -38 1189 q 198 1083 69 1083 q 423 1187 328 1083 l 459 1112 m 145 0 l 145 818 l -21 818 l -21 898 l 438 898 l 438 818 l 249 818 l 249 0 l 145 0 z "},"ॊ":{"ha":417,"x_min":-303,"x_max":438,"o":"m 145 0 l 145 818 l -21 818 l -21 898 l 145 898 l 145 968 q 125 1034 145 1011 q 69 1057 105 1057 q -13 1041 46 1057 q -122 1024 -72 1024 q -303 1121 -219 1024 l -263 1190 q -186 1130 -218 1147 q -121 1114 -154 1114 q -19 1132 -88 1114 q 93 1151 50 1151 q 205 1105 161 1151 q 249 982 249 1059 l 249 898 l 438 898 l 438 818 l 249 818 l 249 0 l 145 0 z "},"ो":{"ha":417,"x_min":-204,"x_max":438,"o":"m 145 0 l 145 818 l -21 818 l -21 898 l 106 898 l -204 1196 l -129 1259 l 235 898 l 438 898 l 438 818 l 249 818 l 249 0 l 145 0 z "},"ौ":{"ha":417,"x_min":-372,"x_max":438,"o":"m 145 0 l 145 818 l -21 818 l -21 887 l -372 1128 l -307 1204 l 117 898 l 135 898 l -20 1259 l 77 1291 l 239 898 l 438 898 l 438 818 l 249 818 l 249 0 l 145 0 z "},"्":{"ha":0,"x_min":-314,"x_max":77,"o":"m -314 -139 l -272 -58 l 77 -232 l 35 -312 l -314 -139 z "},"ॎ":{"ha":417,"x_min":145,"x_max":438,"o":"m 145 0 l 145 898 l 438 898 l 438 818 l 252 818 l 252 0 l 145 0 z "},"ॏ":{"ha":417,"x_min":-411,"x_max":438,"o":"m 145 0 l 145 818 l -21 818 l -21 898 l 91 898 l 77 920 q 28 974 54 957 q -28 990 3 990 q -120 977 -60 990 q -217 965 -180 965 q -411 1055 -329 965 l -374 1116 q -220 1044 -296 1044 q -124 1060 -188 1044 q -25 1076 -60 1076 q 79 1048 37 1076 q 159 954 120 1020 l 159 1066 q 89 1142 159 1142 q 21 1130 69 1142 q -64 1117 -27 1117 q -237 1201 -161 1117 l -200 1264 q -67 1196 -130 1196 q 15 1211 -42 1196 q 110 1225 72 1225 q 212 1187 176 1225 q 249 1077 249 1148 l 249 898 l 438 898 l 438 818 l 249 818 l 249 0 l 145 0 z "},"ॐ":{"ha":1371,"x_min":94,"x_max":1322,"o":"m 751 1076 q 744 1085 751 1076 q 737 1122 737 1093 q 751 1168 737 1152 q 795 1185 766 1185 q 838 1168 824 1185 q 853 1122 853 1152 q 838 1076 853 1093 q 795 1059 823 1059 q 751 1076 766 1059 m 1058 994 q 803 875 960 875 q 530 987 646 875 l 561 1071 q 797 965 668 965 q 1022 1069 927 965 l 1058 994 m 1067 352 q 1187 402 1140 352 q 1233 529 1233 452 q 1194 652 1233 606 q 1100 698 1154 698 q 1002 655 1045 698 q 917 521 958 612 q 876 439 894 470 q 1067 352 982 352 m 395 84 q 242 113 320 84 q 94 197 164 142 l 124 285 q 382 177 253 177 q 498 218 455 177 q 541 321 541 259 q 427 496 541 432 q 250 467 350 467 l 242 467 l 223 553 l 228 553 q 428 599 357 553 q 499 706 499 645 q 461 788 499 757 q 352 819 422 819 q 154 758 256 819 l 123 845 q 348 907 232 907 q 527 850 465 907 q 590 700 590 793 q 510 542 590 607 q 626 385 601 475 q 661 382 642 382 q 741 419 704 382 q 831 564 779 456 q 944 731 883 672 q 1090 790 1005 790 q 1257 715 1192 790 q 1322 523 1322 640 q 1252 335 1322 407 q 1082 264 1182 264 q 827 365 956 264 q 681 293 767 293 q 634 296 654 293 q 564 144 628 204 q 395 84 500 84 z "},"॑":{"ha":0,"x_min":-275,"x_max":-171,"o":"m -275 1216 l -171 1216 l -171 1013 l -275 1013 l -275 1216 z "},"॒":{"ha":0,"x_min":-663,"x_max":-163,"o":"m -163 -152 l -663 -152 l -663 -72 l -163 -72 l -163 -152 z "},"॓":{"ha":0,"x_min":-401,"x_max":-157,"o":"m -253 1271 l -157 1016 l -246 1016 l -401 1271 l -253 1271 z "},"॔":{"ha":0,"x_min":-261,"x_max":-18,"o":"m -261 1016 l -164 1271 l -18 1271 l -171 1016 l -261 1016 z "},"ॕ":{"ha":0,"x_min":-690,"x_max":-161,"o":"m -161 1223 q -417 1118 -259 1118 q -690 1217 -574 1118 l -659 1292 q -422 1198 -551 1198 q -198 1291 -293 1198 l -161 1223 m -177 1008 l -677 1008 l -677 1088 l -177 1088 l -177 1008 z "},"ॖ":{"ha":0,"x_min":-509,"x_max":74,"o":"m 74 -150 q -207 -268 -40 -268 q -509 -156 -374 -268 l -480 -80 q -213 -181 -362 -181 q 41 -77 -65 -181 l 74 -150 z "},"ॗ":{"ha":0,"x_min":-522,"x_max":90,"o":"m 74 -144 q -207 -252 -40 -252 q -509 -149 -374 -252 l -480 -79 q -213 -172 -362 -172 q 41 -77 -65 -172 l 74 -144 m 90 -321 q -205 -426 -29 -426 q -522 -327 -381 -426 l -492 -258 q -212 -349 -368 -349 q 55 -256 -57 -349 l 90 -321 z "},"क़":{"ha":1107,"x_min":-21,"x_max":1128,"o":"m 312 268 q 509 360 424 268 l 509 505 q 333 550 419 550 q 207 514 246 550 q 168 415 168 477 q 208 310 168 352 q 312 268 248 268 m 613 0 l 509 0 l 509 245 q 424 199 473 216 q 324 183 376 183 q 145 254 215 183 q 76 429 76 325 q 135 579 76 520 q 305 638 195 638 q 509 594 416 638 l 509 818 l -21 818 l -21 898 l 1128 898 l 1128 818 l 613 818 l 613 544 q 788 589 692 589 q 949 529 884 589 q 1013 373 1013 470 q 920 127 1013 242 l 836 160 q 922 374 922 273 q 887 466 922 433 q 789 500 852 500 q 613 427 693 500 l 613 0 m 83 -44 q 74 -34 83 -44 q 65 7 65 -24 q 83 58 65 39 q 132 77 100 77 q 182 58 164 77 q 199 7 199 39 q 182 -44 199 -24 q 132 -63 164 -63 q 83 -44 100 -63 z "},"ख़":{"ha":1213,"x_min":-21,"x_max":1234,"o":"m 692 125 q 940 173 831 125 l 940 320 q 785 282 876 282 q 627 342 694 282 q 560 496 560 403 q 617 626 560 576 q 767 676 673 676 q 940 645 862 676 l 940 818 l 426 818 l 426 678 q 418 588 426 628 q 390 507 410 548 q 230 375 348 426 q 316 273 265 324 q 484 166 383 206 q 692 125 586 125 m 782 364 q 940 421 873 364 l 940 560 q 793 595 867 595 q 684 563 719 595 q 649 481 649 532 q 686 398 649 431 q 782 364 723 364 m 940 0 l 940 74 q 701 36 833 36 q 448 83 569 36 q 243 216 328 131 q 147 334 195 263 q 72 456 98 405 q 46 527 46 507 q 59 559 46 546 q 90 572 72 572 q 123 562 109 572 q 152 529 136 553 l 185 470 q 292 553 263 503 q 322 688 322 602 l 322 818 l -21 818 l -21 898 l 1234 898 l 1234 818 l 1044 818 l 1044 0 l 940 0 m 83 -44 q 74 -34 83 -44 q 65 7 65 -24 q 83 58 65 39 q 132 77 100 77 q 182 58 164 77 q 199 7 199 39 q 182 -44 199 -24 q 132 -63 164 -63 q 83 -44 100 -63 z "},"ग़":{"ha":892,"x_min":-21,"x_max":914,"o":"m 620 0 l 620 818 l 315 818 l 315 327 q 271 279 315 279 q 161 342 226 279 q 95 444 95 405 q 142 483 95 483 l 211 483 l 211 818 l -21 818 l -21 898 l 914 898 l 914 818 l 724 818 l 724 0 l 620 0 m 187 -44 q 178 -34 187 -44 q 169 7 169 -24 q 187 58 169 39 q 236 77 204 77 q 286 58 268 77 q 303 7 303 39 q 286 -44 303 -24 q 236 -63 268 -63 q 187 -44 204 -63 z "},"ज़":{"ha":1122,"x_min":-21,"x_max":1143,"o":"m 849 0 l 849 536 l 538 536 q 627 433 595 494 q 659 306 659 372 q 598 152 659 214 q 430 90 538 90 q 228 163 323 90 q 48 389 133 235 l 105 461 q 266 250 189 315 q 423 185 343 185 q 527 219 490 185 q 565 320 565 253 q 505 451 565 387 q 345 545 444 516 l 345 626 l 849 626 l 849 818 l -21 818 l -21 898 l 1143 898 l 1143 818 l 953 818 l 953 0 l 849 0 m 65 -44 q 56 -34 65 -44 q 47 7 47 -24 q 65 58 47 39 q 114 77 82 77 q 164 58 146 77 q 181 7 181 39 q 164 -44 181 -24 q 114 -63 146 -63 q 65 -44 82 -63 z "},"ड़":{"ha":812,"x_min":-21,"x_max":833,"o":"m 438 24 q 87 121 263 24 l 114 210 q 428 112 274 112 q 571 150 520 112 q 621 246 621 188 q 582 321 621 292 q 475 350 543 350 q 378 335 427 350 q 294 296 330 319 l 288 296 q 159 392 202 336 q 116 513 116 447 q 166 624 116 579 q 311 668 217 668 l 534 668 l 534 818 l -21 818 l -21 898 l 833 898 l 833 818 l 638 818 l 638 585 l 317 585 q 239 561 265 585 q 212 499 212 537 q 286 396 212 433 q 471 440 376 440 q 651 385 585 440 q 716 239 716 330 q 645 86 716 148 q 438 24 573 24 m 368 -183 q 359 -173 368 -183 q 350 -132 350 -164 q 368 -82 350 -101 q 417 -62 385 -62 q 467 -82 449 -62 q 484 -132 484 -101 q 467 -183 484 -164 q 417 -203 449 -203 q 368 -183 385 -203 z "},"ढ़":{"ha":812,"x_min":-21,"x_max":833,"o":"m 490 31 q 200 128 316 31 q 85 362 85 225 q 164 552 85 478 q 392 626 242 626 l 529 626 l 529 818 l -21 818 l -21 898 l 833 898 l 833 818 l 633 818 l 633 542 l 430 542 q 242 489 302 542 q 183 348 183 435 q 236 214 183 275 q 376 126 289 152 q 360 213 360 166 q 410 332 360 284 q 553 381 461 381 q 700 332 645 381 q 755 207 755 284 q 686 81 755 131 q 490 31 617 31 m 482 111 q 622 142 574 111 q 670 213 670 173 q 641 277 670 254 q 560 299 613 299 q 477 269 508 299 q 447 195 447 239 q 468 111 447 151 l 482 111 m 402 -169 q 394 -159 402 -169 q 385 -118 385 -150 q 402 -68 385 -87 q 452 -48 420 -48 q 501 -68 484 -48 q 519 -118 519 -87 q 501 -169 519 -150 q 452 -189 484 -189 q 402 -169 420 -189 z "},"फ़":{"ha":1127,"x_min":-21,"x_max":1148,"o":"m 364 389 q 528 435 449 389 l 528 818 l 214 818 l 214 543 q 364 389 214 389 m 632 0 l 528 0 l 528 327 q 381 298 454 298 q 182 366 254 298 q 110 566 110 434 l 110 818 l -21 818 l -21 898 l 1148 898 l 1148 818 l 632 818 l 632 501 q 813 550 711 550 q 978 486 916 550 q 1041 324 1041 421 q 1018 194 1041 263 q 958 74 996 125 l 867 106 q 947 327 947 218 q 912 422 947 385 q 815 459 876 459 q 632 380 718 459 l 632 0 m 138 8 q 130 18 138 8 q 121 59 121 27 q 138 109 121 90 q 188 128 156 128 q 237 109 220 128 q 255 59 255 90 q 237 8 255 27 q 188 -12 220 -12 q 138 8 156 -12 z "},"य़":{"ha":885,"x_min":-21,"x_max":906,"o":"m 612 0 l 612 261 q 431 208 538 208 q 224 269 324 208 q 62 442 124 330 l 65 457 q 225 553 181 497 q 268 700 268 609 l 268 818 l -21 818 l -21 898 l 906 898 l 906 818 l 716 818 l 716 0 l 612 0 m 413 304 q 612 382 532 304 l 612 818 l 372 818 l 372 692 q 199 410 372 489 q 297 332 240 360 q 413 304 354 304 m 120 6 q 111 16 120 6 q 103 57 103 26 q 120 108 103 88 q 170 127 138 127 q 219 108 202 127 q 237 57 237 88 q 219 6 237 26 q 170 -13 202 -13 q 120 6 138 -13 z "},"ॠ":{"ha":1160,"x_min":-21,"x_max":1181,"o":"m 796 545 q 879 601 796 601 q 960 583 924 600 q 996 534 996 565 q 954 461 996 502 l 1056 294 l 1048 252 q 949 201 976 233 q 921 131 921 169 q 1017 55 921 55 q 1128 88 1061 55 l 1142 -1 q 1015 -32 1069 -32 q 875 17 932 -32 q 817 132 817 66 q 939 308 817 244 l 878 407 q 692 360 789 360 q 622 364 658 360 l 622 0 l 514 0 l 514 295 l 173 117 l 125 204 l 504 398 l 420 455 q 304 519 352 501 q 207 536 257 536 q 82 503 157 536 l 53 596 q 202 634 136 634 q 451 544 317 634 l 514 501 l 514 818 l -21 818 l -21 898 l 1181 898 l 1181 818 l 622 818 l 622 457 q 692 452 660 452 q 820 484 764 452 q 796 545 796 519 z "},"ॡ":{"ha":1060,"x_min":-21,"x_max":1081,"o":"m 1008 -223 q 868 -253 941 -253 q 750 -216 794 -253 q 706 -128 706 -178 q 735 -46 706 -79 q 657 7 685 -29 q 629 87 629 42 q 680 188 629 147 q 816 230 732 230 l 824 230 q 881 390 881 313 q 848 492 881 454 q 753 529 815 529 q 618 457 678 529 q 534 244 558 385 l 444 278 q 503 459 463 383 q 328 533 420 533 q 216 488 259 533 q 172 372 172 442 q 215 232 172 301 q 360 68 257 162 l 285 18 q 126 207 178 117 q 73 396 73 297 q 138 560 73 494 q 308 626 204 626 q 551 532 439 626 q 710 621 618 609 l 710 818 l -21 818 l -21 898 l 1081 898 l 1081 818 l 817 818 l 817 614 q 935 532 893 593 q 977 386 977 470 q 889 161 977 279 l 843 161 q 751 137 782 161 q 720 81 720 114 q 745 30 720 49 q 819 11 770 11 q 940 35 869 11 l 956 -35 q 832 -59 883 -56 q 791 -125 791 -80 q 813 -170 791 -152 q 884 -187 836 -187 q 993 -158 931 -187 l 1008 -223 z "},"ॢ":{"ha":0,"x_min":-509,"x_max":34,"o":"m 34 -337 q -55 -355 -6 -355 q -137 -327 -105 -355 q -169 -260 -169 -299 q -143 -195 -169 -220 q -62 -163 -117 -169 q -38 -84 -38 -128 q -55 -39 -38 -58 q -103 -20 -72 -20 q -176 -60 -145 -20 q -225 -163 -208 -100 l -292 -140 q -262 -55 -283 -98 q -359 -7 -305 -7 q -413 -28 -392 -7 q -433 -81 -433 -48 q -412 -147 -433 -113 q -334 -227 -391 -181 l -392 -267 q -509 -67 -509 -173 q -470 27 -509 -11 q -365 66 -431 66 q -221 2 -283 66 q -108 53 -172 53 q -6 14 -44 53 q 32 -82 32 -25 q 20 -155 32 -117 q -14 -220 7 -192 l -42 -220 q -88 -233 -72 -220 q -104 -263 -104 -246 q -90 -291 -104 -280 q -45 -301 -75 -301 q 26 -282 -15 -301 l 34 -337 z "},"ॣ":{"ha":0,"x_min":-509,"x_max":64,"o":"m 64 -448 q -16 -466 30 -466 q -89 -441 -62 -466 q -117 -379 -117 -416 q -106 -339 -117 -357 q -150 -304 -134 -327 q -166 -250 -166 -282 q -141 -195 -166 -219 q -64 -165 -117 -171 q -38 -84 -38 -127 q -55 -39 -38 -58 q -103 -20 -72 -20 q -176 -60 -145 -20 q -225 -163 -208 -100 l -292 -140 q -262 -55 -283 -98 q -359 -7 -305 -7 q -413 -28 -392 -7 q -433 -81 -433 -48 q -412 -147 -433 -113 q -334 -227 -391 -181 l -392 -267 q -509 -67 -509 -173 q -470 27 -509 -11 q -365 66 -431 66 q -221 2 -283 66 q -108 53 -172 53 q -6 14 -44 53 q 32 -82 32 -25 q 20 -155 32 -117 q -13 -220 7 -192 l -34 -220 q -83 -231 -67 -220 q -100 -259 -100 -242 q -46 -296 -100 -296 q 25 -282 -17 -296 l 34 -337 q -35 -351 1 -349 q -54 -383 -54 -360 q -11 -414 -54 -414 q 55 -398 18 -414 l 64 -448 z "},"।":{"ha":451,"x_min":252,"x_max":355,"o":"m 355 -98 l 252 -98 l 252 971 l 355 971 l 355 -98 z "},"॥":{"ha":783,"x_min":252,"x_max":687,"o":"m 355 -98 l 252 -98 l 252 971 l 355 971 l 355 -98 m 687 -98 l 584 -98 l 584 971 l 687 971 l 687 -98 z "},"०":{"ha":784,"x_min":82,"x_max":704,"o":"m 82 484 q 119 626 82 560 q 226 734 155 692 q 389 776 298 776 q 617 685 531 776 q 704 465 704 594 q 619 250 704 336 q 397 163 535 163 q 170 254 258 163 q 82 484 82 345 m 243 621 q 214 590 243 621 q 185 468 185 560 q 245 318 185 377 q 397 258 306 258 q 546 317 487 258 q 604 469 604 376 q 545 621 604 561 q 394 682 486 682 q 243 621 301 682 z "},"१":{"ha":609,"x_min":74,"x_max":540,"o":"m 388 -50 q 420 28 420 -7 q 368 104 420 63 l 124 291 l 124 303 l 302 468 q 132 554 189 490 q 74 701 74 617 q 136 846 74 785 q 302 906 197 906 q 474 842 408 906 q 540 683 540 777 q 424 459 540 571 l 260 300 l 448 151 q 519 29 517 95 q 480 -77 520 -25 l 388 -50 m 210 779 q 192 761 210 779 q 175 689 175 744 q 228 593 175 634 q 379 543 281 552 q 443 684 443 614 q 404 776 443 738 q 304 815 364 815 q 210 779 244 815 z "},"२":{"ha":673,"x_min":70,"x_max":603,"o":"m 193 294 q 115 352 115 294 q 151 434 115 388 q 223 479 187 479 q 265 463 248 479 q 306 407 283 447 q 450 498 396 437 q 504 633 504 559 q 451 756 504 708 q 312 805 398 805 q 103 747 201 805 l 70 837 q 315 895 184 895 q 524 820 445 895 q 603 635 603 746 q 532 443 603 525 q 351 322 461 362 l 567 -31 l 482 -76 l 257 298 q 193 294 227 294 z "},"३":{"ha":645,"x_min":63,"x_max":574,"o":"m 100 151 q 137 220 100 185 q 213 255 174 255 q 292 175 261 255 q 429 223 379 181 q 480 327 480 265 q 437 431 480 389 q 317 473 394 473 q 164 446 241 473 l 141 534 q 319 564 233 564 q 371 560 347 564 q 434 692 434 614 q 396 773 434 738 q 294 807 359 807 q 99 747 196 807 l 63 833 q 298 895 173 895 q 401 878 355 895 q 473 831 446 860 q 529 695 529 771 q 462 527 529 598 q 545 441 516 495 q 574 322 574 386 q 508 167 574 230 q 327 89 442 105 l 400 -55 l 316 -88 l 230 86 q 100 151 100 91 z "},"४":{"ha":744,"x_min":22,"x_max":742,"o":"m 547 115 q 518 87 547 115 q 390 58 489 58 q 230 118 292 58 q 167 260 167 177 q 197 380 167 319 q 316 531 228 440 l 22 831 l 91 899 l 381 599 l 668 900 l 742 834 l 450 527 q 572 372 537 437 q 606 247 606 307 q 547 115 606 171 m 298 177 q 315 162 298 177 q 386 147 331 147 q 474 177 440 147 q 507 258 507 208 q 481 342 507 296 q 386 460 455 388 q 289 340 313 384 q 265 251 265 296 q 298 177 265 206 z "},"५":{"ha":770,"x_min":96,"x_max":806,"o":"m 430 833 q 197 470 197 650 q 245 333 197 380 q 370 286 294 286 q 510 331 447 286 q 475 420 475 390 q 556 483 475 483 q 655 463 619 483 q 692 410 692 442 q 635 306 692 365 l 806 -43 l 718 -79 l 559 246 q 371 194 472 194 q 174 269 251 194 q 96 468 96 345 q 341 890 96 688 l 430 833 m 574 408 l 562 388 q 574 408 569 398 z "},"६":{"ha":681,"x_min":75,"x_max":699,"o":"m 432 83 q 223 153 301 83 q 145 330 145 223 q 195 466 145 405 q 107 557 139 503 q 75 677 75 610 q 124 797 75 744 q 426 893 212 893 l 451 805 q 237 761 298 805 q 176 655 176 718 q 265 525 176 579 q 497 581 355 579 l 530 492 q 313 440 382 492 q 244 309 244 388 q 293 212 244 253 q 418 171 341 171 q 494 180 456 171 q 476 240 476 217 q 494 276 476 263 q 559 289 511 289 q 645 269 606 289 q 683 218 683 248 q 666 173 683 197 q 618 130 650 150 l 699 -47 l 615 -81 l 536 95 q 432 83 487 83 z "},"७":{"ha":834,"x_min":98,"x_max":765,"o":"m 454 85 q 196 200 293 85 q 98 529 98 316 q 116 714 98 617 q 161 887 134 812 l 257 856 q 195 494 195 676 q 215 354 195 416 q 268 253 235 292 q 444 175 338 175 q 617 262 550 175 q 395 373 466 300 q 324 534 324 447 q 375 673 324 622 q 510 725 425 725 q 692 639 618 725 q 765 411 765 553 q 726 249 765 323 q 615 130 687 174 q 454 85 543 85 m 423 528 q 657 341 423 396 q 670 432 670 385 q 627 574 670 515 q 525 633 584 633 q 450 604 477 633 q 423 528 423 576 z "},"८":{"ha":709,"x_min":79,"x_max":695,"o":"m 204 413 q 195 391 204 413 q 185 314 185 369 q 233 216 185 258 q 354 174 282 173 q 494 203 426 175 q 642 299 561 232 l 695 210 q 367 79 534 79 q 158 151 237 79 q 79 333 79 223 q 105 457 79 398 q 193 583 131 516 l 474 889 l 555 823 l 276 515 q 204 413 224 457 z "},"९":{"ha":661,"x_min":63,"x_max":596,"o":"m 450 -34 q 489 52 489 11 q 435 153 489 93 l 199 409 q 95 549 128 488 q 63 685 63 610 q 128 839 63 773 q 304 905 192 905 q 484 835 416 905 q 553 668 553 765 q 490 504 553 571 q 321 419 428 437 l 518 204 q 596 57 596 119 q 548 -64 596 -6 l 450 -34 m 166 669 q 187 585 166 626 q 251 495 207 544 q 402 556 350 513 q 455 664 455 600 q 414 769 455 727 q 309 810 374 810 q 205 770 244 810 q 166 669 166 729 z "},"॰":{"ha":533,"x_min":46,"x_max":479,"o":"m 416 609 q 447 580 416 609 q 479 462 479 550 q 418 318 479 375 q 265 261 357 261 q 109 321 173 261 q 46 468 46 381 q 106 612 46 555 q 260 669 166 669 q 416 609 353 669 m 355 374 q 375 391 355 374 q 394 464 394 409 q 355 555 394 519 q 261 591 315 591 q 169 555 206 591 q 131 464 131 520 q 169 374 131 409 q 262 339 206 339 q 355 374 317 339 z "},"ॱ":{"ha":508,"x_min":188,"x_max":322,"o":"m 206 799 q 197 809 206 799 q 188 850 188 819 q 206 901 188 881 q 255 920 223 920 q 305 901 287 920 q 322 850 322 881 q 305 799 322 819 q 255 779 287 779 q 206 799 223 779 z "},"ॲ":{"ha":1107,"x_min":67,"x_max":1144,"o":"m 1144 1111 q 889 992 1046 992 q 616 1104 732 992 l 647 1188 q 883 1082 753 1082 q 1107 1187 1013 1082 l 1144 1111 m 834 0 l 834 378 q 694 353 774 353 q 604 360 655 353 q 607 314 607 336 q 543 150 607 216 q 368 84 478 84 q 215 113 293 84 q 67 197 137 142 l 96 285 q 355 177 226 177 q 470 218 428 177 q 513 321 513 259 q 400 496 513 432 q 223 467 323 467 l 215 467 l 196 553 l 201 553 q 401 599 329 553 q 472 706 472 645 q 433 788 472 757 q 325 819 395 819 q 127 758 229 819 l 95 845 q 321 907 204 907 q 500 850 437 907 q 562 700 562 793 q 482 542 562 607 q 570 449 539 501 q 676 440 622 440 q 834 481 765 440 l 834 818 l 679 818 l 679 898 l 1128 898 l 1128 818 l 938 818 l 938 0 l 834 0 z "},"ॳ":{"ha":1107,"x_min":67,"x_max":1128,"o":"m 834 0 l 834 378 q 694 353 774 353 q 604 360 655 353 q 607 314 607 336 q 543 150 607 216 q 368 84 478 84 q 215 113 293 84 q 67 197 137 142 l 96 285 q 355 177 226 177 q 470 218 428 177 q 513 321 513 259 q 400 496 513 432 q 223 467 323 467 l 215 467 l 196 553 l 201 553 q 401 599 329 553 q 472 706 472 645 q 433 788 472 757 q 325 819 395 819 q 127 758 229 819 l 95 845 q 321 907 204 907 q 500 850 437 907 q 562 700 562 793 q 482 542 562 607 q 570 449 539 501 q 676 440 622 440 q 834 481 765 440 l 834 818 l 679 818 l 679 898 l 826 898 l 826 1045 l 930 1045 l 930 898 l 1128 898 l 1128 818 l 938 818 l 938 0 l 834 0 z "},"ॴ":{"ha":1510,"x_min":67,"x_max":1531,"o":"m 834 0 l 834 378 q 694 353 774 353 q 604 360 655 353 q 607 314 607 336 q 543 150 607 216 q 368 84 478 84 q 215 113 293 84 q 67 197 137 142 l 96 285 q 355 177 226 177 q 470 218 428 177 q 513 321 513 259 q 400 496 513 432 q 223 467 323 467 l 215 467 l 196 553 l 201 553 q 401 599 329 553 q 472 706 472 645 q 433 788 472 757 q 325 819 395 819 q 127 758 229 819 l 95 845 q 321 907 204 907 q 500 850 437 907 q 562 700 562 793 q 482 542 562 607 q 570 449 539 501 q 676 440 622 440 q 834 481 765 440 l 834 818 l 679 818 l 679 898 l 1232 898 l 1232 1045 l 1336 1045 l 1336 898 l 1531 898 l 1531 818 l 1343 818 l 1343 0 l 1239 0 l 1239 818 l 938 818 l 938 0 l 834 0 z "},"ॵ":{"ha":1510,"x_min":67,"x_max":1531,"o":"m 834 0 l 834 378 q 694 353 774 353 q 604 360 655 353 q 607 314 607 336 q 543 150 607 216 q 368 84 478 84 q 215 113 293 84 q 67 197 137 142 l 96 285 q 355 177 226 177 q 470 218 428 177 q 513 321 513 259 q 400 496 513 432 q 223 467 323 467 l 215 467 l 196 553 l 201 553 q 401 599 329 553 q 472 706 472 645 q 433 788 472 757 q 325 819 395 819 q 127 758 229 819 l 95 845 q 321 907 204 907 q 500 850 437 907 q 562 700 562 793 q 482 542 562 607 q 570 449 539 501 q 676 440 622 440 q 834 481 765 440 l 834 818 l 679 818 l 679 898 l 1179 898 l 1165 920 q 1116 974 1142 957 q 1059 990 1090 990 q 968 977 1028 990 q 871 965 908 965 q 676 1055 759 965 l 714 1116 q 867 1044 791 1044 q 964 1060 899 1044 q 1062 1076 1028 1076 q 1166 1048 1125 1076 q 1246 954 1208 1020 l 1246 1066 q 1177 1142 1246 1142 q 1109 1130 1156 1142 q 1024 1117 1061 1117 q 850 1201 927 1117 l 888 1264 q 1020 1196 958 1196 q 1103 1211 1046 1196 q 1198 1225 1160 1225 q 1300 1187 1263 1225 q 1336 1077 1336 1148 l 1336 898 l 1531 898 l 1531 818 l 1343 818 l 1343 0 l 1239 0 l 1239 818 l 938 818 l 938 0 l 834 0 z "},"ॶ":{"ha":1107,"x_min":67,"x_max":1128,"o":"m 834 0 l 834 378 q 694 353 774 353 q 604 360 655 353 q 607 314 607 336 q 543 150 607 216 q 368 84 478 84 q 215 113 293 84 q 67 197 137 142 l 96 285 q 355 177 226 177 q 470 218 428 177 q 513 321 513 259 q 400 496 513 432 q 223 467 323 467 l 215 467 l 196 553 l 201 553 q 401 599 329 553 q 472 706 472 645 q 433 788 472 757 q 325 819 395 819 q 127 758 229 819 l 95 845 q 321 907 204 907 q 500 850 437 907 q 562 700 562 793 q 482 542 562 607 q 570 449 539 501 q 676 440 622 440 q 834 481 765 440 l 834 818 l 679 818 l 679 898 l 1128 898 l 1128 818 l 938 818 l 938 0 l 834 0 m 866 -150 q 586 -268 753 -268 q 284 -156 418 -268 l 312 -80 q 579 -181 431 -181 q 833 -77 727 -181 l 866 -150 z "},"ॷ":{"ha":1107,"x_min":67,"x_max":1128,"o":"m 834 0 l 834 378 q 694 353 774 353 q 604 360 655 353 q 607 314 607 336 q 543 150 607 216 q 368 84 478 84 q 215 113 293 84 q 67 197 137 142 l 96 285 q 355 177 226 177 q 470 218 428 177 q 513 321 513 259 q 400 496 513 432 q 223 467 323 467 l 215 467 l 196 553 l 201 553 q 401 599 329 553 q 472 706 472 645 q 433 788 472 757 q 325 819 395 819 q 127 758 229 819 l 95 845 q 321 907 204 907 q 500 850 437 907 q 562 700 562 793 q 482 542 562 607 q 570 449 539 501 q 676 440 622 440 q 834 481 765 440 l 834 818 l 679 818 l 679 898 l 1128 898 l 1128 818 l 938 818 l 938 0 l 834 0 m 864 -144 q 584 -252 751 -252 q 282 -149 417 -252 l 310 -79 q 577 -172 428 -172 q 831 -77 726 -172 l 864 -144 m 881 -321 q 586 -426 762 -426 q 268 -327 410 -426 l 298 -258 q 578 -349 423 -349 q 846 -256 734 -349 l 881 -321 z "},"ॸ":{"ha":742,"x_min":-21,"x_max":763,"o":"m 275 318 q 235 272 275 272 q 182 290 215 272 q 110 346 149 307 q 71 417 71 385 q 118 463 71 449 l 171 479 l 171 818 l -21 818 l -21 898 l 763 898 l 763 818 l 275 818 l 275 508 q 441 535 357 535 q 607 476 546 535 q 667 319 667 416 q 642 192 667 258 q 577 70 618 126 l 490 103 q 574 318 574 220 q 540 409 574 374 q 445 444 505 444 q 275 400 361 444 l 275 318 z "},"ॹ":{"ha":1122,"x_min":-21,"x_max":1143,"o":"m 849 0 l 849 536 l 538 536 q 627 433 595 494 q 659 306 659 372 q 598 152 659 214 q 430 90 538 90 q 228 163 323 90 q 48 389 133 235 l 105 461 q 266 250 189 315 q 423 185 343 185 q 527 219 490 185 q 565 320 565 253 q 505 451 565 387 q 345 545 444 516 l 345 626 l 849 626 l 849 818 l -21 818 l -21 898 l 1143 898 l 1143 818 l 953 818 l 953 0 l 849 0 m 170 -83 q 162 -75 170 -83 q 154 -39 154 -66 q 170 6 154 -11 q 213 23 185 23 q 257 6 242 23 q 272 -38 272 -11 q 257 -83 272 -65 q 214 -100 242 -100 q 170 -83 186 -100 m 512 -89 q 504 -80 512 -89 q 496 -44 496 -72 q 512 0 496 -17 q 555 18 527 18 q 599 0 584 18 q 614 -44 614 -17 q 599 -88 614 -71 q 556 -106 584 -106 q 512 -89 528 -106 m 343 -189 q 335 -180 343 -189 q 327 -144 327 -171 q 343 -99 327 -117 q 386 -82 358 -82 q 430 -99 414 -82 q 445 -144 445 -117 q 430 -188 445 -171 q 387 -206 414 -206 q 343 -189 359 -206 z "},"ॺ":{"ha":885,"x_min":-21,"x_max":906,"o":"m 612 0 l 612 261 q 432 208 539 208 q 224 269 324 208 q 62 442 124 330 l 65 457 q 225 553 181 497 q 268 700 268 609 l 268 818 l -21 818 l -21 898 l 906 898 l 906 818 l 716 818 l 716 0 l 612 0 m 612 818 l 391 818 l 612 469 l 612 818 m 414 303 q 587 357 515 303 l 369 705 l 369 692 q 199 410 369 487 q 297 331 240 360 q 414 303 354 303 z "},"ॻ":{"ha":892,"x_min":-21,"x_max":914,"o":"m 620 0 l 620 818 l 315 818 l 315 327 q 271 279 315 279 q 161 342 226 279 q 95 444 95 405 q 142 483 95 483 l 211 483 l 211 818 l -21 818 l -21 898 l 914 898 l 914 818 l 724 818 l 724 0 l 717 0 l 717 -80 l 168 -80 l 168 0 l 620 0 z "},"ॼ":{"ha":1122,"x_min":-21,"x_max":1143,"o":"m 849 0 l 849 536 l 538 536 q 627 433 595 494 q 659 306 659 372 q 598 152 659 214 q 430 90 538 90 q 228 163 323 90 q 48 389 133 235 l 105 461 q 266 250 189 315 q 423 185 343 185 q 527 219 490 185 q 565 320 565 253 q 505 451 565 387 q 345 545 444 516 l 345 626 l 849 626 l 849 818 l -21 818 l -21 898 l 1143 898 l 1143 818 l 953 818 l 953 -80 l 119 -80 l 119 0 l 849 0 z "},"ॽ":{"ha":739,"x_min":142,"x_max":634,"o":"m 258 1 l 258 480 l 267 480 q 462 538 385 482 q 539 673 539 593 q 491 772 539 733 q 358 811 444 811 q 172 761 272 811 l 142 849 q 360 902 253 902 q 561 837 488 902 q 634 661 634 771 q 594 534 634 591 q 494 443 553 476 q 367 402 434 411 l 367 1 l 258 1 z "},"ॾ":{"ha":812,"x_min":-21,"x_max":833,"o":"m 438 24 q 87 121 263 24 l 114 210 q 428 112 274 112 q 571 150 520 112 q 621 246 621 188 q 582 321 621 292 q 475 350 543 350 q 378 335 427 350 q 294 296 330 319 l 288 296 q 159 392 202 336 q 116 513 116 447 q 166 624 116 579 q 311 668 217 668 l 534 668 l 534 818 l -21 818 l -21 898 l 833 898 l 833 818 l 638 818 l 638 585 l 317 585 q 239 561 265 585 q 212 499 212 537 q 286 396 212 433 q 471 440 376 440 q 651 385 585 440 q 716 239 716 330 q 645 86 716 148 q 438 24 573 24 m 709 -67 l 709 -147 l 138 -147 l 138 -67 l 709 -67 z "},"ॿ":{"ha":820,"x_min":-21,"x_max":845,"o":"m 551 0 l 551 227 q 370 176 477 176 q 161 253 242 176 q 80 444 80 329 q 149 604 80 541 q 334 668 218 668 q 551 633 450 668 l 551 818 l -21 818 l -21 898 l 845 898 l 845 818 l 655 818 l 655 -80 l 154 -80 l 154 0 l 551 0 m 360 581 q 303 576 333 581 l 526 319 q 551 341 540 329 l 551 541 q 360 581 444 581 m 359 264 q 446 277 406 264 l 221 539 q 173 428 173 499 q 224 311 173 357 q 359 264 275 264 z "},"​":{"ha":0,"x_min":0,"x_max":0,"o":""},"‌":{"ha":0,"x_min":-14,"x_max":14,"o":"m 14 -250 l -14 -250 l -14 1145 l 14 1145 l 14 -250 z "},"‍":{"ha":0,"x_min":-187,"x_max":187,"o":"m 14 -249 l -14 -249 l -14 918 l -166 770 l -187 791 l -20 952 l -185 1113 l -165 1133 l 0 973 l 165 1133 l 187 1112 l 21 951 l 187 791 l 165 771 l 14 918 l 14 -249 z "},"–":{"ha":719,"x_min":88,"x_max":631,"o":"m 631 369 l 88 369 l 88 465 l 631 465 l 631 369 z "},"—":{"ha":1366,"x_min":88,"x_max":1278,"o":"m 1278 369 l 88 369 l 88 465 l 1278 465 l 1278 369 z "},"―":{"ha":1294,"x_min":88,"x_max":1278,"o":"m 1278 369 l 88 369 l 88 465 l 1278 465 l 1278 369 z "},"‘":{"ha":428,"x_min":112,"x_max":302,"o":"m 237 607 l 120 607 l 112 621 q 155 757 125 673 q 224 924 185 842 l 302 924 q 237 607 260 763 z "},"’":{"ha":414,"x_min":112,"x_max":302,"o":"m 302 910 q 190 607 262 763 l 112 607 q 177 924 157 791 l 292 924 l 302 910 z "},"“":{"ha":640,"x_min":91,"x_max":513,"o":"m 216 607 l 99 607 l 91 621 q 134 757 104 673 q 203 924 164 842 l 281 924 q 216 607 239 763 m 513 924 q 449 607 470 760 l 332 607 l 323 621 q 435 924 357 752 l 513 924 z "},"”":{"ha":647,"x_min":112,"x_max":534,"o":"m 344 607 q 410 924 397 819 l 525 924 l 534 910 q 423 607 494 759 l 344 607 m 302 910 q 190 607 262 763 l 112 607 q 177 924 157 791 l 292 924 l 302 910 z "},"•":{"ha":487,"x_min":104,"x_max":383,"o":"m 347 357 q 328 336 347 357 q 243 316 310 316 q 140 357 176 316 q 104 474 104 398 q 139 589 104 549 q 243 628 175 628 q 347 589 310 628 q 383 474 383 550 q 347 357 383 397 z "},"…":{"ha":1015,"x_min":96,"x_max":919,"o":"m 898 4 q 888 -7 898 4 q 842 -18 877 -18 q 787 3 807 -18 q 767 66 767 24 q 786 131 767 109 q 842 153 805 153 q 899 131 878 153 q 919 68 919 109 q 898 4 919 27 m 562 4 q 552 -7 562 4 q 507 -18 541 -18 q 451 3 472 -18 q 431 66 431 24 q 450 131 431 109 q 506 153 470 153 q 563 131 543 153 q 584 68 584 109 q 562 4 584 27 m 228 4 q 217 -7 228 4 q 172 -18 206 -18 q 117 3 137 -18 q 96 66 96 24 q 116 131 96 109 q 171 153 135 153 q 228 131 208 153 q 249 68 249 109 q 228 4 249 27 z "},"₹":{"ha":793,"x_min":103,"x_max":687,"o":"m 103 555 l 103 635 l 450 635 q 379 765 442 711 q 227 818 316 818 l 103 818 l 103 898 l 687 898 l 687 818 l 447 818 q 545 635 534 744 l 687 635 l 687 555 l 540 555 q 454 406 522 466 q 282 324 386 345 l 539 6 l 540 0 l 430 0 l 154 336 l 157 395 q 443 555 404 409 l 103 555 z "},"−":{"ha":740,"x_min":66,"x_max":673,"o":"m 673 413 l 66 413 l 66 500 l 673 500 l 673 413 z "},"◌":{"ha":796,"x_min":103,"x_max":706,"o":"m 404 737 q 435 707 435 737 q 404 677 435 677 q 376 707 376 677 q 404 737 376 737 m 575 623 q 575 638 575 623 q 605 653 575 653 q 634 623 634 653 q 605 593 634 593 q 575 623 575 593 m 176 623 q 176 638 176 623 q 206 653 176 653 q 235 623 235 653 q 206 593 235 593 q 176 623 176 593 m 103 431 q 103 446 103 431 q 133 461 103 461 q 162 431 162 461 q 133 401 162 401 q 103 431 103 401 m 675 461 q 706 431 706 461 q 675 401 706 401 q 646 431 646 401 q 675 461 646 461 m 575 239 q 575 255 575 239 q 605 270 575 270 q 634 239 634 270 q 605 209 634 209 q 575 239 575 209 m 176 239 q 176 255 176 239 q 206 270 176 270 q 235 239 235 270 q 206 209 235 209 q 176 239 176 209 m 404 185 q 435 155 435 185 q 404 125 435 125 q 376 155 376 125 q 404 185 376 185 z "}}}
